<svg version="1.1" id="Layer_1" xmlns="http://www.w3.org/2000/svg" xmlns:xlink="http://www.w3.org/1999/xlink" x="0" y="0" viewBox="0 0 657 651.1" xml:space="preserve"><style>.st1{fill:#263338}.st2{fill:#64eba9}.st3{fill:#fff}.st6{fill:#121224}.st9{fill:#715da8}.st21{fill:#10111d}.st32{fill:none;stroke:#263338;stroke-linecap:round;stroke-linejoin:round}.st33{fill:#0f101e}.st35{fill:#c4c4c4}</style><g id="Group_8192" transform="translate(-12.414 -16.031)"><g transform="translate(12.414 16.031)" id="Group_8139"><defs><path id="SVGID_1_" d="M0 0h657v651.1H0z"/></defs><clipPath id="SVGID_00000035528801217370627400000012909503695011594918_"><use xlink:href="#SVGID_1_" overflow="visible"/></clipPath><g id="Group_8138" clip-path="url(#SVGID_00000035528801217370627400000012909503695011594918_)"><path id="Path_1" class="st1" d="M307.3 49c-16.1 0-29.2 13.1-29.2 29.2s13.1 29.2 29.2 29.2 29.2-13.1 29.2-29.2-13.1-29.1-29.2-29.2m0 60.1c-17 0-30.9-13.8-30.9-30.9 0-17 13.8-30.9 30.9-30.9 17 0 30.9 13.8 30.9 30.9 0 17.1-13.8 30.9-30.9 30.9m71-17.9zm-83.2 57.2h24.3l1.6-18.6c0-.3.3-.6.6-.7 4-1.1 7.8-2.7 11.4-4.7.3-.2.7-.1.9.1l14.3 12 17.2-17.2-12-14.3c-.2-.3-.3-.6-.1-.9 2-3.6 3.6-7.4 4.7-11.4.1-.3.4-.6.7-.6l18.6-1.6V66.1l-18.6-1.6c-.3 0-.6-.3-.7-.6-1.1-4-2.7-7.8-4.7-11.4-.2-.3-.1-.7.1-.9l12-14.3L348.3 20 334 32c-.3.2-.6.3-.9.1-3.6-2-7.4-3.6-11.4-4.7-.3-.1-.6-.4-.6-.7l-1.6-18.6h-24.3l-1.6 18.6c0 .3-.3.6-.6.7-4 1.1-7.8 2.7-11.4 4.7-.3.2-.7.1-.9-.1l-14.3-12-17.2 17.2 12 14.3c.2.3.3.6.1.9-2 3.6-3.6 7.4-4.7 11.4-.1.3-.4.6-.7.6L237.3 66v24.3l18.6 1.6c.3 0 .6.3.7.6 1.1 4 2.7 7.8 4.7 11.4.2.3.1.7-.1.9l-12 14.3 17.2 17.2 14.3-12c.3-.2.6-.3.9-.1 3.6 2 7.4 3.6 11.4 4.7.3.1.6.4.6.7l1.5 18.8zm25.1 1.7h-25.9c-.4 0-.8-.3-.8-.8l-1.6-18.8c-3.7-1.1-7.3-2.6-10.7-4.4l-14.4 12.1c-.3.3-.8.3-1.1 0l-18.3-18.3c-.3-.3-.3-.8 0-1.1l12.1-14.4c-1.9-3.4-3.3-7-4.4-10.7L236.3 92c-.4 0-.8-.4-.8-.8V65.3c0-.4.3-.8.8-.8l18.8-1.6c1.1-3.7 2.6-7.3 4.4-10.7l-12.1-14.4c-.3-.3-.3-.8 0-1.1l18.3-18.3c.3-.3.8-.3 1.1 0l14.4 12.1c3.4-1.9 7-3.3 10.7-4.4l1.6-18.8c0-.4.4-.8.8-.8h25.9c.4 0 .8.3.8.8l1.6 18.8c3.7 1.1 7.3 2.6 10.7 4.4l14.4-12.1c.3-.3.8-.3 1.1 0l18.3 18.3c.3.3.3.8 0 1.1L355 52.2c1.9 3.4 3.3 7 4.4 10.7l18.8 1.6c.4 0 .8.4.8.8v25.9c0 .4-.3.8-.8.8l-18.8 1.6c-1.1 3.7-2.6 7.3-4.4 10.7l12.1 14.4c.3.3.3.8 0 1.1L349 138.2c-.3.3-.8.3-1.1 0l-14.4-12.1c-3.4 1.9-7 3.3-10.7 4.4l-1.6 18.8c-.2.5-.5.8-1 .8"/><path id="Path_2" class="st1" d="M622.1 324.1c-7.5 0-13.6 6.1-13.6 13.6s6.1 13.6 13.6 13.6 13.6-6.1 13.6-13.6-6.1-13.6-13.6-13.6m0 28.8c-8.4 0-15.2-6.8-15.2-15.2 0-8.4 6.8-15.2 15.2-15.2 8.4 0 15.2 6.8 15.2 15.2 0 8.4-6.8 15.2-15.2 15.2m34.1-9zm-39.5 27h10.9l.7-8.5c0-.3.3-.6.6-.7 1.9-.5 3.7-1.3 5.4-2.2.3-.2.7-.1.9.1l6.5 5.5 7.7-7.7-5.5-6.5c-.2-.3-.3-.6-.1-.9 1-1.7 1.7-3.5 2.2-5.4.1-.3.4-.6.7-.6l8.5-.7v-10.9l-8.5-.7c-.3 0-.6-.3-.7-.6-.5-1.9-1.3-3.7-2.2-5.4-.2-.3-.1-.7.1-.9l5.5-6.5-7.7-7.7-6.5 5.5c-.3.2-.6.3-.9.1-1.7-1-3.5-1.7-5.4-2.2-.3-.1-.6-.4-.6-.7l-.7-8.5h-10.9l-.7 8.5c0 .3-.3.6-.6.7-1.9.5-3.7 1.3-5.4 2.2-.3.2-.7.1-.9-.1l-6.5-5.5-7.7 7.7 5.5 6.5c.2.3.3.6.1.9-.9 1.7-1.7 3.5-2.2 5.4-.1.3-.4.6-.7.6l-8.5.7v10.9l8.5.7c.3 0 .6.3.7.6.5 1.9 1.3 3.7 2.2 5.4.2.3.1.7-.1.9l-5.5 6.5 7.7 7.7 6.5-5.5c.3-.2.6-.3.9-.1 1.7 1 3.5 1.7 5.4 2.2.3.1.6.4.6.7l.7 8.5zm11.6 1.7h-12.4c-.4 0-.8-.3-.8-.8l-.8-8.7c-1.6-.5-3.2-1.1-4.7-1.9l-6.7 5.6c-.3.3-.8.3-1.1 0L593 358c-.3-.3-.3-.8 0-1.1l5.6-6.7c-.8-1.5-1.4-3.1-1.9-4.7l-8.7-.8c-.4 0-.8-.4-.8-.8v-12.4c0-.4.3-.8.8-.8l8.7-.8c.5-1.6 1.1-3.2 1.9-4.7l-5.6-6.7c-.3-.3-.3-.8 0-1.1l8.8-8.8c.3-.3.8-.3 1.1 0l6.7 5.6c1.5-.8 3.1-1.4 4.7-1.9l.8-8.7c0-.4.4-.8.8-.8h12.4c.4 0 .8.3.8.8l.8 8.7c1.6.5 3.2 1.1 4.7 1.9l6.7-5.6c.3-.3.8-.3 1.1 0l8.8 8.8c.3.3.3.8 0 1.1l-5.6 6.7c.8 1.5 1.4 3.1 1.9 4.7l8.7.8c.4 0 .8.4.8.8v12.4c0 .4-.3.8-.8.8l-8.7.8c-.5 1.6-1.1 3.2-1.9 4.7l5.6 6.7c.3.3.3.8 0 1.1l-8.8 8.8c-.3.3-.8.3-1.1 0l-6.7-5.6c-1.5.8-3.1 1.4-4.7 1.9l-.8 8.7c0 .5-.3.8-.8.8"/><path id="Path_3" class="st1" d="M539.5 92.2c-13.1 0-24.1 9.8-25.5 22.8 0 .4-.4.7-.8.7-7.7.2-13.8 6.6-13.6 14.3.2 7.6 6.3 13.6 13.9 13.6h124c7.7 0 13.9-6.2 13.9-13.9 0-4.2-1.9-8.2-5.1-10.8-.2-.2-.4-.5-.3-.8 4.1-17.8-7-35.5-24.7-39.6-5.3-1.2-10.8-1.1-16 .3-.4.1-.7-.1-.9-.4-8.6-15.2-27.8-20.6-43.1-12-9.3 5.3-15.4 14.9-16 25.6 0 .5-.4.8-.9.8h-.1c-1.6-.4-3.2-.6-4.8-.6m98 53h-124c-8.6 0-15.6-7-15.6-15.6 0-8.2 6.4-15 14.5-15.6 2-14.9 15.8-25.3 30.7-23.3.2 0 .4.1.5.1 1.7-18.3 17.8-31.8 36.1-30.1 10.7 1 20.2 7 25.7 16.2 18.5-4.7 37.4 6.6 42 25.1 1.3 5.2 1.4 10.5.3 15.7 6.5 5.7 7.2 15.5 1.5 22-2.9 3.6-7.2 5.5-11.7 5.5"/><path id="Path_4" class="st1" d="M578.7 168.1c-.5 0-.8-.4-.8-.8v-34.2c0-.5.3-.8.8-.9s.8.3.9.8V167.3c-.1.4-.5.8-.9.8"/><path id="Path_5" class="st1" d="M578.7 127.1c-.5 0-.8-.4-.8-.8v-13.7c0-.5.3-.8.8-.9s.8.3.9.8V126.3c-.1.4-.5.8-.9.8"/><path id="Path_6" class="st1" d="M578.7 108c-.5 0-.8-.4-.8-.8v-7.3c0-.5.3-.8.8-.9s.8.3.9.8V107.2c-.1.4-.5.8-.9.8"/><path id="Path_7" class="st1" d="M578.7 172.1c-.2 0-.5-.1-.6-.3l-6.5-8c-.3-.4-.2-.9.1-1.2.4-.3.9-.2 1.2.1l5.8 7.2 5.8-7.2c.3-.4.8-.4 1.2-.1.4.3.4.8.1 1.2l-6.5 8c-.1.2-.4.3-.6.3"/><path id="Path_8" class="st1" d="M161.8 493c-13.1 0-24.1 9.8-25.5 22.8 0 .4-.4.7-.8.7-7.7.1-13.8 6.5-13.7 14.2.1 7.6 6.4 13.8 14 13.7h124c7.7 0 13.9-6.2 13.9-13.9 0-4.2-1.9-8.2-5.1-10.8-.2-.2-.4-.5-.3-.8 4.1-17.8-7-35.5-24.7-39.6-5.3-1.2-10.8-1.1-16 .3-.4.1-.7-.1-.9-.4-8.6-15.2-27.8-20.6-43.1-12-9.3 5.3-15.4 14.9-16 25.6 0 .5-.4.8-.9.8h-.1c-1.6-.5-3.2-.6-4.8-.6m97.9 53h-124c-8.6 0-15.6-7-15.6-15.6 0-8.2 6.4-15 14.5-15.6 1.9-13.5 13.4-23.6 27.1-23.6 1.4 0 2.8.1 4.2.3 1.7-18.3 17.8-31.8 36.1-30.1 10.7 1 20.2 7 25.7 16.2 18.5-4.7 37.4 6.6 42 25.2 1.3 5.2 1.4 10.5.3 15.7 6.5 5.7 7.2 15.5 1.5 22-3 3.6-7.2 5.5-11.8 5.5"/><path id="Path_9" class="st1" d="M200.9 539.6c-.5 0-.8-.4-.8-.8v-34.2c0-.5.3-.8.8-.9.5 0 .8.3.9.8V538.8c-.1.4-.4.8-.9.8"/><path id="Path_10" class="st1" d="M200.9 560.1c-.5 0-.8-.4-.8-.8v-13.7c0-.5.3-.8.8-.9s.8.3.9.8V559.3c-.1.4-.4.8-.9.8"/><path id="Path_11" class="st1" d="M207.4 509.4c-.2 0-.5-.1-.6-.3l-5.8-7.2-5.8 7.2c-.3.4-.8.4-1.2.1-.4-.3-.4-.8-.1-1.2l6.5-8c.3-.4.9-.4 1.2-.1 0 0 .1 0 .1.1l6.5 8c.3.4.2.9-.1 1.2-.4.1-.6.2-.7.2"/><path id="Path_12" class="st2" d="M428 111.9H0V92.4c0-3.9 3.1-7 7-7h414.1c3.9 0 7 3.1 7 7l-.1 19.5z"/></g></g><path id="Rectangle_13" class="st3" d="M31.1 132.9h432.6v304.4H31.1z"/><g transform="translate(12.414 16.031)" id="Group_8141"><defs><path id="SVGID_00000056399969747648914790000001988108208118383544_" d="M0 0h657v651.1H0z"/></defs><clipPath id="SVGID_00000173137149797604104990000017108249308331592373_"><use xlink:href="#SVGID_00000056399969747648914790000001988108208118383544_" overflow="visible"/></clipPath><g id="Group_8140" clip-path="url(#SVGID_00000173137149797604104990000017108249308331592373_)"><path id="Path_13" class="st1" d="M19.5 420.5h431V117.7h-431v302.8zm431.9 1.6H18.7c-.5 0-.8-.4-.8-.8V116.8c0-.5.4-.8.8-.8h432.6c.5 0 .8.4.8.8v304.4c.1.5-.3.9-.7.9"/><path id="Path_14" class="st3" d="M458 98.7c0 3.7-3 6.6-6.6 6.6-3.7 0-6.6-3-6.6-6.6s3-6.6 6.6-6.6c3.6 0 6.6 2.9 6.6 6.6"/><path id="Path_15" class="st1" d="M451.4 92.9c-3.2 0-5.8 2.6-5.8 5.8s2.6 5.8 5.8 5.8 5.8-2.6 5.8-5.8c0-3.2-2.6-5.8-5.8-5.8m0 13.2c-4.1 0-7.4-3.3-7.4-7.4s3.3-7.4 7.4-7.4 7.4 3.3 7.4 7.4c0 4.1-3.3 7.4-7.4 7.4"/><path id="Path_16" class="st3" d="M434.7 98.7c0 3.7-3 6.6-6.6 6.6-3.7 0-6.6-3-6.6-6.6s3-6.6 6.6-6.6c3.6 0 6.6 2.9 6.6 6.6"/><path id="Path_17" class="st1" d="M428 92.9c-3.2 0-5.8 2.6-5.8 5.8s2.6 5.8 5.8 5.8 5.8-2.6 5.8-5.8c0-3.2-2.6-5.8-5.8-5.8m0 13.2c-4.1 0-7.4-3.3-7.4-7.4s3.3-7.4 7.4-7.4c4.1 0 7.4 3.3 7.4 7.4.1 4.1-3.2 7.4-7.4 7.4"/><path id="Path_18" class="st3" d="M411.4 98.7c0 3.7-3 6.6-6.6 6.6-3.7 0-6.6-3-6.6-6.6s3-6.6 6.6-6.6c3.6 0 6.6 2.9 6.6 6.6"/><path id="Path_19" class="st1" d="M404.7 92.9c-3.2 0-5.8 2.6-5.8 5.8s2.6 5.8 5.8 5.8 5.8-2.6 5.8-5.8c0-3.2-2.6-5.8-5.8-5.8m0 13.2c-4.1 0-7.4-3.3-7.4-7.4s3.3-7.4 7.4-7.4c4.1 0 7.4 3.3 7.4 7.4.1 4.1-3.3 7.4-7.4 7.4"/><path id="Path_20" class="st1" d="M438.3 131.6h-17.1c-.9 0-1.6-.7-1.6-1.6 0-.9.7-1.6 1.6-1.6h17.1c.9 0 1.6.7 1.6 1.6 0 .8-.7 1.6-1.6 1.6"/><path id="Path_21" class="st1" d="M438.3 138.5h-17.1c-.9 0-1.6-.7-1.6-1.6 0-.9.7-1.6 1.6-1.6h17.1c.9 0 1.6.7 1.6 1.6 0 .9-.7 1.6-1.6 1.6"/><path id="Path_22" class="st1" d="M438.3 145.5h-17.1c-.9 0-1.6-.7-1.6-1.6 0-.9.7-1.6 1.6-1.6h17.1c.9 0 1.6.7 1.6 1.6 0 .8-.7 1.5-1.6 1.6"/><path id="Path_23" class="st1" d="M48.7 311.2h129.6c.9 0 1.6-.7 1.6-1.6 0-.9-.7-1.6-1.6-1.6H48.7c-.9 0-1.6.7-1.6 1.6-.1.8.7 1.6 1.6 1.6"/><path id="Path_24" class="st1" d="M48.7 321.4h129.6c.9 0 1.6-.7 1.6-1.6s-.7-1.6-1.6-1.6H48.7c-.9 0-1.6.7-1.6 1.6s.7 1.6 1.6 1.6"/><path id="Path_25" class="st1" d="M48.7 331.8h102.2c.9 0 1.6-.7 1.6-1.6s-.7-1.6-1.6-1.6H48.7c-.9 0-1.6.7-1.6 1.6s.7 1.6 1.6 1.6"/><path id="Path_26" class="st1" d="M322.8 120.3v.8c0 .5.3.8.8.9s.8-.3.9-.8v-.9c0-.5-.3-.8-.8-.9s-.9.4-.9.9c0-.1 0 0 0 0"/><path id="Path_27" class="st1" d="M323.6 128.5c-.5 0-.8-.4-.8-.8V126c0-.5.3-.8.8-.9s.8.3.9.8V127.6c-.1.5-.4.9-.9.9m0 6.6c-.5 0-.8-.4-.8-.8v-1.6c0-.5.3-.8.8-.9s.8.3.9.8V134.3c-.1.4-.4.8-.9.8m0 6.6c-.5 0-.8-.4-.8-.8v-1.6c0-.5.3-.8.8-.9s.8.3.9.8V140.9c-.1.4-.4.8-.9.8m0 6.5c-.5 0-.8-.4-.8-.8v-1.6c0-.5.3-.8.8-.9s.8.3.9.8V147.4c-.1.5-.4.8-.9.8m0 6.6c-.5 0-.8-.4-.8-.8v-1.6c0-.5.3-.8.8-.9s.8.3.9.8V154c-.1.4-.4.8-.9.8m0 6.6c-.5 0-.8-.4-.8-.8V159c0-.5.3-.8.8-.9s.8.3.9.8V160.6c-.1.4-.4.8-.9.8m0 6.6c-.5 0-.8-.4-.8-.8v-1.6c0-.5.3-.8.8-.9s.8.3.9.8V167.2c-.1.4-.4.8-.9.8m0 6.5c-.5 0-.8-.4-.8-.8v-1.6c0-.5.3-.8.8-.9s.8.3.9.8V173.7c-.1.5-.4.8-.9.8m0 6.6c-.5 0-.8-.4-.8-.8v-1.6c0-.5.3-.8.8-.9s.8.3.9.8V180.3c-.1.5-.4.8-.9.8m0 6.6c-.5 0-.8-.4-.8-.8v-1.6c0-.5.4-.8.9-.8.4 0 .8.4.8.8v1.6c-.1.4-.4.8-.9.8m0 6.6c-.5 0-.8-.4-.8-.8v-1.6c0-.5.3-.8.8-.9s.8.3.9.8V193.5c-.1.4-.4.8-.9.8m0 6.6c-.5 0-.8-.4-.8-.8v-1.6c0-.5.3-.8.8-.9s.8.3.9.8V200.1c-.1.4-.4.8-.9.8m0 6.5c-.5 0-.8-.4-.8-.8V205c0-.5.4-.8.9-.8.4 0 .8.4.8.8v1.6c-.1.5-.4.8-.9.8m0 6.6c-.5 0-.8-.4-.8-.8v-1.6c0-.5.3-.8.8-.9s.8.3.9.8V213.2c-.1.4-.4.8-.9.8m0 6.6c-.5 0-.8-.4-.8-.8v-1.6c0-.5.3-.8.8-.9s.8.3.9.8V219.8c-.1.4-.4.8-.9.8m0 6.6c-.5 0-.8-.4-.8-.8v-1.6c0-.5.3-.8.8-.9s.8.3.9.8V226.4c-.1.4-.4.8-.9.8m0 6.5c-.5 0-.8-.4-.8-.8v-1.6c0-.5.3-.8.8-.9s.8.3.9.8V232.9c-.1.5-.4.8-.9.8m0 6.6c-.5 0-.8-.4-.8-.8v-1.6c0-.5.3-.8.8-.9s.8.3.9.8V239.5c-.1.4-.4.8-.9.8m0 6.6c-.5 0-.8-.4-.8-.8v-1.6c0-.5.3-.8.8-.9s.8.3.9.8V246.1c-.1.4-.4.8-.9.8m0 6.6c-.5 0-.8-.4-.8-.8V251c0-.5.3-.8.8-.9s.8.3.9.8V252.6c-.1.5-.4.9-.9.9m0 6.6c-.5 0-.8-.4-.8-.8v-1.6c0-.5.3-.8.8-.9.5 0 .8.3.9.8V259.3c-.1.4-.4.8-.9.8m0 6.5c-.5 0-.8-.4-.8-.8v-1.6c0-.5.3-.8.8-.9.5 0 .8.3.9.8V265.8c-.1.5-.4.8-.9.8m0 6.6c-.5 0-.8-.4-.8-.8v-1.6c0-.5.3-.8.8-.9.5 0 .8.3.9.8V272.4c-.1.4-.4.8-.9.8m0 6.6c-.5 0-.8-.4-.8-.8v-1.6c0-.5.3-.8.8-.9.5 0 .8.3.9.8V279c-.1.4-.4.8-.9.8m0 6.6c-.5 0-.8-.4-.8-.8V284c0-.5.3-.8.8-.9.5 0 .8.3.9.8V285.6c-.1.4-.4.8-.9.8m0 6.5c-.5 0-.8-.4-.8-.8v-1.6c0-.5.3-.8.8-.9.5 0 .8.3.9.8V292.1c-.1.5-.4.8-.9.8m0 6.6c-.5 0-.8-.4-.8-.8V297c0-.5.3-.8.8-.9.5 0 .8.3.9.8V298.6c-.1.5-.4.9-.9.9m0 6.6c-.5 0-.8-.4-.8-.8v-1.6c0-.5.3-.8.8-.9.5 0 .8.3.9.8V305.3c-.1.4-.4.8-.9.8m0 6.6c-.5 0-.8-.4-.8-.8v-1.6c0-.5.3-.8.8-.9.5 0 .8.3.9.8V311.9c-.1.4-.4.8-.9.8m0 6.5c-.5 0-.8-.4-.8-.8v-1.6c0-.5.3-.8.8-.9.5 0 .8.3.9.8V318.4c-.1.5-.5.8-.9.8m0 6.6c-.5 0-.8-.4-.8-.8v-1.6c0-.5.4-.8.9-.8.4 0 .8.4.8.8v1.6c-.1.4-.5.8-.9.8m0 6.6c-.5 0-.8-.4-.8-.8V330c0-.5.4-.8.9-.8.4 0 .8.4.8.8v1.6c-.1.4-.5.8-.9.8m0 6.6c-.5 0-.8-.4-.8-.8v-1.6c0-.5.3-.8.8-.9.5 0 .8.3.9.8V338.2c-.1.4-.5.8-.9.8m0 6.6c-.5 0-.8-.4-.8-.8v-1.6c0-.5.3-.8.8-.9.5 0 .8.3.9.8V344.8c-.1.4-.5.8-.9.8m0 6.5c-.5 0-.8-.4-.8-.8v-1.6c0-.5.4-.8.9-.8.4 0 .8.4.8.8v1.6c-.1.5-.5.8-.9.8m0 6.6c-.5 0-.8-.4-.8-.8v-1.6c0-.5.4-.8.9-.8.4 0 .8.4.8.8v1.6c-.1.4-.5.8-.9.8m0 6.6c-.5 0-.8-.4-.8-.8v-1.6c0-.5.3-.8.8-.9.5 0 .8.3.9.8V364.5c-.1.4-.5.8-.9.8m0 6.6c-.5 0-.8-.4-.8-.8v-1.6c0-.5.4-.8.9-.8.4 0 .8.4.8.8v1.6c-.1.4-.5.8-.9.8m0 6.5c-.5 0-.8-.4-.8-.8V376c0-.5.3-.8.8-.9.5 0 .8.3.9.8V377.6c-.1.5-.5.8-.9.8m0 6.6c-.5 0-.8-.4-.8-.8v-1.6c0-.5.3-.8.8-.9.5 0 .8.3.9.8V384.2c-.1.4-.5.8-.9.8m0 6.6c-.5 0-.8-.4-.8-.8v-1.6c0-.5.4-.8.9-.8.4 0 .8.4.8.8v1.6c-.1.4-.5.8-.9.8m0 6.6c-.5 0-.8-.4-.8-.8v-1.6c0-.5.4-.8.9-.8.4 0 .8.4.8.8v1.6c-.1.4-.5.8-.9.8m0 6.5c-.5 0-.8-.4-.8-.8v-1.6c0-.5.4-.8.9-.8.4 0 .8.4.8.8v1.6c-.1.5-.5.8-.9.8m0 6.6c-.5 0-.8-.4-.8-.8v-1.6c0-.5.4-.8.9-.8.4 0 .8.4.8.8v1.6c-.1.5-.5.8-.9.8"/><path id="Path_28" class="st1" d="M322.8 415.4v.8c0 .5.3.8.8.9.5 0 .8-.3.9-.8v-.9c0-.5-.3-.8-.8-.9-.5.1-.9.4-.9.9"/><path id="Path_29" class="st1" d="M23.9 353.8h.8c.5 0 .8-.4.8-.9 0-.4-.4-.8-.8-.8h-.8c-.5 0-.8.4-.8.9.1.5.4.8.8.8"/><path id="Path_30" class="st1" d="M29.7 353.8h1.6c.5 0 .8-.4.8-.9 0-.4-.4-.8-.8-.8h-1.6c-.5 0-.8.4-.8.9s.4.8.8.8m6.6 0h1.6c.5 0 .8-.4.8-.9 0-.4-.4-.8-.8-.8h-1.6c-.5 0-.8.4-.8.9s.3.8.8.8m6.5 0h1.6c.5 0 .8-.4.8-.9 0-.4-.4-.8-.8-.8h-1.6c-.5 0-.8.4-.8.9.1.5.4.8.8.8m6.6 0H51c.5 0 .8-.3.9-.8s-.3-.8-.8-.9H49.4c-.5 0-.8.4-.8.9s.4.8.8.8m6.6 0h1.6c.5 0 .8-.4.8-.9 0-.4-.4-.8-.8-.8H56c-.5 0-.8.3-.9.8s.4.9.9.9m6.6 0h1.6c.5 0 .8-.4.8-.9 0-.4-.4-.8-.8-.8h-1.6c-.5 0-.8.4-.8.9s.3.8.8.8m6.5 0h1.6c.5 0 .8-.3.9-.8s-.3-.8-.8-.9H69.1c-.5 0-.8.4-.8.9.1.5.4.8.8.8m6.6 0h1.6c.5 0 .8-.3.9-.8s-.3-.8-.8-.9H75.7c-.5 0-.8.3-.9.8s.4.9.9.9m6.6 0h1.6c.5 0 .8-.4.8-.9 0-.4-.4-.8-.8-.8h-1.6c-.5 0-.8.4-.8.9s.4.8.8.8m6.6 0h1.6c.5 0 .8-.3.9-.8s-.3-.8-.8-.9H88.9c-.5 0-.8.4-.8.9s.3.8.8.8m6.5 0H97c.5 0 .8-.3.9-.8s-.3-.8-.8-.9H95.4c-.5 0-.8.3-.9.8s.4.9.9.9m6.6 0h1.6c.5 0 .8-.4.8-.9 0-.4-.4-.8-.8-.8H102c-.5 0-.8.4-.8.9s.4.8.8.8m6.6 0h1.6c.5 0 .8-.4.8-.9 0-.4-.4-.8-.8-.8h-1.6c-.5 0-.8.3-.9.8s.4.9.9.9m6.6 0h1.6c.5 0 .8-.4.8-.9 0-.4-.4-.8-.8-.8h-1.6c-.5 0-.8.3-.9.8s.4.9.9.9c-.1 0 0 0 0 0m6.5 0h1.6c.5 0 .8-.3.9-.8s-.3-.8-.8-.9H121.7c-.5 0-.8.4-.8.9.1.5.4.8.8.8m6.6 0h1.6c.5 0 .8-.3.9-.8s-.3-.8-.8-.9H128.3c-.5 0-.8.4-.8.9s.4.8.8.8m6.6 0h1.6c.5 0 .8-.4.8-.9 0-.4-.4-.8-.8-.8h-1.6c-.5 0-.8.3-.9.8s.4.9.9.9m6.6 0h1.6c.5 0 .8-.3.9-.8s-.3-.8-.8-.9H141.5c-.5 0-.8.3-.9.8s.4.9.9.9c-.1 0 0 0 0 0m6.5 0h1.6c.5 0 .8-.3.9-.8s-.3-.8-.8-.9H148c-.5 0-.8.3-.9.8s.4.9.9.9m6.6 0h1.6c.5 0 .8-.3.9-.8s-.3-.8-.8-.9H154.6c-.5 0-.8.3-.9.8s.4.9.9.9m6.6 0h1.6c.5 0 .8-.3.9-.8s-.3-.8-.8-.9H161.2c-.5 0-.8.3-.9.8s.4.9.9.9m6.6 0h1.6c.5 0 .8-.4.8-.9 0-.4-.4-.8-.8-.8h-1.6c-.5 0-.8.4-.8.9s.3.8.8.8m6.5 0h1.6c.5 0 .8-.3.9-.8s-.3-.8-.8-.9H174.3c-.5 0-.8.4-.8.9.1.5.4.8.8.8m6.6 0h1.6c.5 0 .8-.3.9-.8s-.3-.8-.8-.9H180.9c-.5 0-.8.4-.8.9s.4.8.8.8m6.6 0h1.6c.5 0 .8-.4.8-.9 0-.4-.4-.8-.8-.8h-1.6c-.5 0-.8.4-.8.9s.4.8.8.8m6.6 0h1.6c.5 0 .8-.3.9-.8s-.3-.8-.8-.9H194.1c-.5 0-.8.3-.9.8s.4.9.9.9c-.1 0-.1 0 0 0m6.5 0h1.6c.5 0 .8-.3.9-.8s-.3-.8-.8-.9H200.6c-.5 0-.8.3-.9.8s.4.9.9.9m6.6 0h1.6c.5 0 .8-.4.8-.9 0-.4-.4-.8-.8-.8h-1.6c-.5 0-.8.3-.9.8s.4.9.9.9m6.6 0h1.6c.5 0 .8-.4.8-.9 0-.4-.4-.8-.8-.8h-1.6c-.5 0-.8.3-.9.8s.4.9.9.9m6.6 0h1.6c.5 0 .8-.3.9-.8s-.3-.8-.8-.9H220.4c-.5 0-.8.4-.8.9s.3.8.8.8m6.5 0h1.6c.5 0 .8-.3.9-.8s-.3-.8-.8-.9H226.9c-.5 0-.8.4-.8.9.1.5.4.8.8.8m6.6 0h1.6c.5 0 .8-.3.9-.8s-.3-.8-.8-.9H233.5c-.5 0-.8.3-.9.8s.4.9.9.9m6.6 0h1.6c.5 0 .8-.4.8-.9 0-.4-.4-.8-.8-.8h-1.6c-.5 0-.8.4-.8.9s.4.8.8.8m6.6 0h1.6c.5 0 .8-.4.8-.9 0-.4-.4-.8-.8-.8h-1.6c-.5 0-.8.4-.8.9s.3.8.8.8m6.5 0h1.6c.5 0 .8-.4.8-.9 0-.4-.4-.8-.8-.8h-1.6c-.5 0-.8.4-.8.9.1.5.4.8.8.8m6.6 0h1.6c.5 0 .8-.4.8-.9 0-.4-.4-.8-.8-.8h-1.6c-.5 0-.8.4-.8.9s.4.8.8.8m6.6 0h1.6c.5 0 .8-.4.8-.9 0-.4-.4-.8-.8-.8h-1.6c-.5 0-.8.3-.9.8 0 .5.4.9.9.9m6.6 0h1.6c.5 0 .8-.4.8-.9 0-.4-.4-.8-.8-.8H273c-.5 0-.8.3-.9.8 0 .5.4.9.9.9-.1 0 0 0 0 0m6.5 0h1.6c.5 0 .8-.4.8-.9 0-.4-.4-.8-.8-.8h-1.6c-.5 0-.8.4-.8.9.1.5.4.8.8.8m6.6 0h1.6c.5 0 .8-.4.8-.9 0-.4-.4-.8-.8-.8h-1.6c-.5 0-.8.3-.9.8.1.5.4.9.9.9m6.6 0h1.6c.5 0 .8-.4.8-.9 0-.4-.4-.8-.8-.8h-1.6c-.5 0-.8.4-.8.9s.4.8.8.8m6.6 0h1.6c.5 0 .8-.4.8-.9 0-.4-.4-.8-.8-.8h-1.6c-.5 0-.8.4-.8.9s.3.8.8.8m6.5 0h1.6c.5 0 .8-.3.9-.8 0-.5-.3-.8-.8-.9H305.8c-.5 0-.8.4-.8.9.1.5.4.8.8.8m6.6 0h1.6c.5 0 .8-.3.9-.8 0-.5-.3-.8-.8-.9H312.4c-.5 0-.8.4-.8.9s.4.8.8.8m6.6 0h1.6c.5 0 .8-.3.9-.8 0-.5-.3-.8-.8-.9H319c-.5 0-.8.4-.8.9s.4.8.8.8m6.6 0h1.6c.5 0 .8-.3.9-.8 0-.5-.3-.8-.8-.9H325.6c-.5 0-.8.4-.8.9s.3.8.8.8m6.5 0h1.6c.5 0 .8-.4.8-.9 0-.4-.4-.8-.8-.8h-1.6c-.5 0-.8.4-.8.9.1.5.4.8.8.8m6.6 0h1.6c.5 0 .8-.4.8-.9 0-.4-.4-.8-.8-.8h-1.6c-.5 0-.8.4-.8.9s.4.8.8.8m6.6 0h1.6c.5 0 .8-.3.9-.8 0-.5-.3-.8-.8-.9H345.3c-.5 0-.8.4-.8.9s.4.8.8.8m6.6 0h1.6c.5 0 .8-.4.8-.9 0-.4-.4-.8-.8-.8h-1.6c-.5 0-.8.4-.8.9s.3.8.8.8m6.5 0h1.6c.5 0 .8-.4.8-.9 0-.4-.4-.8-.8-.8h-1.6c-.5 0-.8.4-.8.9.1.5.4.8.8.8m6.6 0h1.6c.5 0 .8-.4.8-.9 0-.4-.4-.8-.8-.8H365c-.5 0-.8.3-.9.8.1.5.4.9.9.9m6.6 0h1.6c.5 0 .8-.4.8-.9 0-.4-.4-.8-.8-.8h-1.6c-.5 0-.8.3-.9.8 0 .5.4.9.9.9m6.6 0h1.6c.5 0 .8-.4.8-.9 0-.4-.4-.8-.8-.8h-1.6c-.5 0-.8.4-.8.9s.3.8.8.8m6.5 0h1.6c.5 0 .8-.4.8-.9 0-.4-.4-.8-.8-.8h-1.6c-.5 0-.8.4-.8.9.1.5.4.8.8.8m6.6 0h1.6c.5 0 .8-.4.8-.9 0-.4-.4-.8-.8-.8h-1.6c-.5 0-.8.4-.8.9s.4.8.8.8m6.6 0h1.6c.5 0 .8-.4.8-.9 0-.4-.4-.8-.8-.8h-1.6c-.5 0-.8.3-.9.8 0 .5.4.9.9.9m6.6 0h1.6c.5 0 .8-.3.9-.8 0-.5-.3-.8-.8-.9H404.5c-.5 0-.8.3-.9.8 0 .5.4.9.9.9-.1 0-.1 0 0 0m6.5 0h1.6c.5 0 .8-.4.8-.9 0-.4-.4-.8-.8-.8H411c-.5 0-.8.4-.8.9.1.5.4.8.8.8m6.6 0h1.6c.5 0 .8-.3.9-.8 0-.5-.3-.8-.8-.9H417.6c-.5 0-.8.3-.9.8 0 .5.4.9.9.9m6.6 0h1.6c.5 0 .8-.3.9-.8 0-.5-.3-.8-.8-.9H424.2c-.5 0-.8.4-.8.9s.4.8.8.8m6.6 0h1.6c.5 0 .8-.3.9-.8 0-.5-.3-.8-.8-.9H430.8c-.5 0-.8.4-.8.9s.3.8.8.8m6.5 0h1.6c.5 0 .8-.3.9-.8 0-.5-.3-.8-.8-.9H437.3c-.5 0-.8.4-.8.9.1.5.4.8.8.8"/><path id="Path_31" class="st1" d="M443.9 353.8h.8c.5 0 .8-.3.9-.8 0-.5-.3-.8-.8-.9h-.9c-.5 0-.8.3-.9.8.1.5.4.9.9.9"/></g></g><path id="Rectangle_15" class="st3" d="M333.2 366.2h5.7v5.7h-5.7z"/><g transform="translate(12.414 16.031)" id="Group_8143"><defs><path id="SVGID_00000102531203148233064770000008531842389202888871_" d="M0 0h657v651.1H0z"/></defs><clipPath id="SVGID_00000062185936450392441050000002314062931940038305_"><use xlink:href="#SVGID_00000102531203148233064770000008531842389202888871_" overflow="visible"/></clipPath><g id="Group_8142" clip-path="url(#SVGID_00000062185936450392441050000002314062931940038305_)"><path id="Path_32" class="st1" d="M321.6 355h4v-4h-4v4zm4.9 1.7h-5.7c-.5 0-.8-.4-.8-.8v-5.7c0-.5.4-.8.8-.8h5.7c.5 0 .8.4.8.8v5.7c0 .4-.4.8-.8.8"/><path id="Path_33" class="st2" d="M193.9 0h-81.2c-2 0-3.6 1.6-3.6 3.6v37.8c0 2 1.6 3.6 3.6 3.6h36.4l4.2 14.9 4.2-14.9h36.4c2 0 3.6-1.6 3.6-3.6V3.6c0-2-1.6-3.6-3.6-3.6"/><path id="Path_34" class="st1" d="M122.6 12.5H184c.9 0 1.6-.7 1.6-1.6 0-.9-.7-1.6-1.6-1.6h-61.3c-.9 0-1.6.7-1.6 1.6-.1.8.6 1.6 1.5 1.6"/><path id="Path_35" class="st1" d="M122.6 20.2H184c.9 0 1.6-.7 1.6-1.6 0-.9-.7-1.6-1.6-1.6h-61.3c-.9 0-1.6.7-1.6 1.6-.1.9.6 1.6 1.5 1.6"/><path id="Path_36" class="st1" d="M122.6 28H184c.9 0 1.6-.7 1.6-1.6 0-.9-.7-1.6-1.6-1.6h-61.3c-.9 0-1.6.7-1.6 1.6-.1.9.6 1.6 1.5 1.6"/><path id="Path_37" class="st1" d="M122.6 35.8h46.2c.9 0 1.6-.7 1.6-1.6 0-.9-.7-1.6-1.6-1.6h-46.2c-.9 0-1.6.7-1.6 1.6 0 .8.7 1.6 1.6 1.6"/></g></g><path id="Rectangle_17" class="st6" d="M84.8 417.2h88.4v55.4H84.8z"/><path id="Rectangle_18" class="st2" d="M84.8 417.2h88.4v8.4H84.8z"/><g transform="translate(12.414 16.031)" id="Group_8145"><defs><path id="SVGID_00000134241231595746844560000002493494651617431940_" d="M0 0h657v651.1H0z"/></defs><clipPath id="SVGID_00000078747029788049821590000017423655096209901966_"><use xlink:href="#SVGID_00000134241231595746844560000002493494651617431940_" overflow="visible"/></clipPath><g id="Group_8144" clip-path="url(#SVGID_00000078747029788049821590000017423655096209901966_)"><path id="Path_38" class="st3" d="M81.4 417.5H104c.5 0 .8-.4.8-.9 0-.4-.4-.8-.8-.8H81.4c-.5 0-.8.4-.8.9 0 .4.4.8.8.8"/><path id="Path_39" class="st3" d="M92.7 423.8h39.1c.5 0 .8-.3.9-.8 0-.5-.3-.8-.8-.9H92.7c-.5 0-.8.3-.9.8s.4.9.9.9"/><path id="Path_40" class="st3" d="M87.7 429.6h11.5c.5 0 .8-.4.8-.9 0-.4-.4-.8-.8-.8H87.7c-.5 0-.8.4-.8.9s.4.8.8.8"/><path id="Path_41" class="st3" d="M92.7 436.6H119c.5 0 .8-.4.8-.9 0-.4-.4-.8-.8-.8H92.7c-.5 0-.8.4-.8.9 0 .4.4.8.8.8"/><path id="Path_42" class="st3" d="M81.4 442.9H104c.5 0 .8-.4.8-.9 0-.4-.4-.8-.8-.8H81.4c-.5 0-.8.4-.8.9 0 .4.4.8.8.8"/><path id="Path_43" class="st1" d="M301 297.6h-75.9c-.5 0-.8.4-.8.9 0 .4.4.8.8.8H301c.5 0 .8-.3.9-.8-.1-.5-.4-.9-.9-.9"/><path id="Path_44" class="st1" d="M303.2 333.5c-.3-6.3-2-12.5-5-18-2.8-5.1-7-9.4-12-12.4-5.7-3.4-13.2-5.6-23.2-5.6s-17.5 2.2-23.2 5.6c-7.1 4.3-12.4 11.1-14.9 19-1.3 3.7-2 7.5-2.1 11.4 0 .5.4.8.9.8.4 0 .8-.4.8-.8v-.4c.4-6.5 2.3-12.9 5.8-18.5 2.8-4.5 6.8-8.2 11.5-10.8 5.3-2.9 12.2-4.8 21.3-4.8 9.7 0 17 2.2 22.4 5.4 6.8 4.1 11.8 10.6 14.2 18.1.8 2.5 1.4 5.1 1.8 7.7.1 1 .2 1.8.2 2.3v.8c0 .5.4.8.9.8.3.2.6-.2.6-.6"/><path id="Path_45" class="st2" d="M299.1 333.5c0-1.8 1.5-3.3 3.3-3.3s3.3 1.5 3.3 3.3c0 1.8-1.5 3.3-3.3 3.3s-3.3-1.5-3.3-3.3"/><path id="Path_46" class="st2" d="M220.3 333.5c0-1.8 1.5-3.3 3.3-3.3s3.3 1.5 3.3 3.3c0 1.8-1.5 3.3-3.3 3.3s-3.3-1.5-3.3-3.3"/></g></g><path id="Rectangle_20" class="st2" d="M311.9 311.4h5.8v5.8h-5.8z"/><path id="Rectangle_21" class="st2" d="M272.5 311.4h5.8v5.8h-5.8z"/><path id="Rectangle_22" class="st2" d="M233.1 311.4h5.8v5.8h-5.8z"/><g transform="translate(12.414 16.031)" id="Group_8147"><defs><path id="SVGID_00000153700315271697035550000009920224875645184406_" d="M0 0h657v651.1H0z"/></defs><clipPath id="SVGID_00000078723469080051523710000000439404508800307132_"><use xlink:href="#SVGID_00000153700315271697035550000009920224875645184406_" overflow="visible"/></clipPath><g id="Group_8146" clip-path="url(#SVGID_00000078723469080051523710000000439404508800307132_)"><path id="Path_47" class="st2" d="M63.8 200.1c-7.5 0-13.5-6.1-13.5-13.5 0-7.5 6.1-13.5 13.5-13.5 7.5 0 13.5 6.1 13.5 13.5.1 7.5-6 13.5-13.5 13.5m32-7.7v-11.6l-8.7-.8c-.5-1.8-1.2-3.6-2.2-5.2l5.6-6.7-8.2-8.2-6.7 5.6c-1.7-.9-3.4-1.6-5.2-2.2l-.8-8.7H58l-.8 8.7c-1.8.5-3.6 1.2-5.2 2.2l-6.7-5.6-8.2 8.2 5.6 6.7c-.9 1.7-1.6 3.4-2.2 5.2l-8.7.8v11.6l8.7.8c.5 1.8 1.2 3.6 2.2 5.2l-5.6 6.7 8.2 8.2 6.7-5.6c1.7.9 3.4 1.6 5.2 2.2l.8 8.7h11.6l.8-8.7c1.8-.5 3.6-1.2 5.2-2.2l6.7 5.6 8.2-8.2-5.6-6.7c.9-1.7 1.6-3.4 2.2-5.2l8.7-.8z"/><path id="Path_48" class="st2" d="M113.5 223.8c-5.1 0-9.3-4.1-9.3-9.3 0-5.1 4.1-9.3 9.3-9.3s9.3 4.1 9.3 9.3c0 5.2-4.2 9.3-9.3 9.3m21.9-5.2v-8l-6-.5c-.3-1.2-.8-2.4-1.5-3.6l3.9-4.6-5.6-5.6-4.6 3.9c-1.1-.6-2.3-1.1-3.6-1.5l-.5-6h-8l-.5 6c-1.2.3-2.4.8-3.6 1.5l-4.6-3.9-5.6 5.6 3.9 4.6c-.6 1.1-1.1 2.3-1.5 3.6l-6 .5v8l6 .5c.3 1.2.8 2.4 1.5 3.6l-3.9 4.6 5.6 5.6 4.6-3.9c1.1.6 2.3 1.1 3.6 1.5l.5 6h8l.5-6c1.2-.3 2.4-.8 3.6-1.5l4.6 3.9 5.6-5.6-3.9-4.6c.6-1.1 1.1-2.3 1.5-3.6l6-.5z"/><path id="Path_49" class="st1" d="M339.9 374h63.8c.9 0 1.6-.7 1.6-1.6s-.7-1.6-1.6-1.6h-63.8c-.9 0-1.6.7-1.6 1.6s.7 1.6 1.6 1.6"/><path id="Path_50" class="st1" d="M339.9 384.3h63.8c.9 0 1.6-.7 1.6-1.6s-.7-1.6-1.6-1.6h-63.8c-.9 0-1.6.7-1.6 1.6s.7 1.6 1.6 1.6"/><path id="Path_51" class="st1" d="M339.9 394.7h36.3c.9 0 1.6-.7 1.6-1.6s-.7-1.6-1.6-1.6h-36.3c-.9 0-1.6.7-1.6 1.6s.7 1.6 1.6 1.6"/><path id="Path_52" class="st9" d="M255.9 397.3h-33.6c-4.6 0-8.3-3.7-8.3-8.3s3.7-8.3 8.3-8.3h33.6c4.6 0 8.3 3.7 8.3 8.3s-3.8 8.3-8.3 8.3"/><path id="Path_53" class="st9" d="M318.4 397.3h-33.6c-4.6 0-8.3-3.7-8.3-8.3s3.7-8.3 8.3-8.3h33.6c4.6 0 8.3 3.7 8.3 8.3s-3.7 8.3-8.3 8.3"/></g></g><path id="Rectangle_24" class="st3" d="M357 236.6h71.2v71.2H357z"/><g transform="translate(12.414 16.031)" id="Group_8149"><defs><path id="SVGID_00000005950889607810900930000011738018672308008069_" d="M0 0h657v651.1H0z"/></defs><clipPath id="SVGID_00000078760099670920578320000017416768581405317305_"><use xlink:href="#SVGID_00000005950889607810900930000011738018672308008069_" overflow="visible"/></clipPath><g id="Group_8148" clip-path="url(#SVGID_00000078760099670920578320000017416768581405317305_)"><path id="Path_54" class="st1" d="M345.4 291H415v-69.6h-69.6V291zm70.4 1.6h-71.2c-.5 0-.8-.4-.8-.8v-71.2c0-.5.4-.8.8-.8h71.2c.5 0 .8.4.8.8v71.2c0 .5-.4.8-.8.8"/><path id="Path_55" class="st1" d="M415.8 292.6c-.2 0-.4-.1-.6-.2L344 221.2c-.3-.3-.3-.8 0-1.2.3-.3.8-.3 1.2 0l71.2 71.2c.3.3.3.8 0 1.2-.2.1-.4.2-.6.2"/><path id="Path_56" class="st1" d="M344.6 292.6c-.5 0-.8-.4-.8-.8 0-.2.1-.4.2-.6l71.2-71.2c.3-.3.8-.3 1.2 0s.3.8 0 1.2l-71.2 71.2c-.2.1-.4.2-.6.2"/></g></g><path id="Rectangle_26" class="st6" d="M417.1 194.3h88.4v55.4h-88.4z"/><path id="Rectangle_27" class="st2" d="M417.1 194.3h88.4v8.4h-88.4z"/><g transform="translate(12.414 16.031)" id="Group_8151"><defs><path id="SVGID_00000109007734347122882270000014047281507929073070_" d="M0 0h657v651.1H0z"/></defs><clipPath id="SVGID_00000090972961338076745790000010236856171264395408_"><use xlink:href="#SVGID_00000109007734347122882270000014047281507929073070_" overflow="visible"/></clipPath><g id="Group_8150" clip-path="url(#SVGID_00000090972961338076745790000010236856171264395408_)"><path id="Path_57" class="st3" d="M413.7 194.6h22.6c.5 0 .8-.3.9-.8 0-.5-.3-.8-.8-.9H413.7c-.5 0-.8.4-.8.9.1.5.4.8.8.8"/><path id="Path_58" class="st3" d="M425 200.9h39.1c.5 0 .8-.3.9-.8 0-.5-.3-.8-.8-.9H425c-.5 0-.8.3-.9.8.1.5.4.9.9.9"/><path id="Path_59" class="st3" d="M420 206.8h11.5c.5 0 .8-.3.9-.8 0-.5-.3-.8-.8-.9H420c-.5 0-.8.4-.8.9.1.4.4.8.8.8"/><path id="Path_60" class="st3" d="M425 213.7h26.3c.5 0 .8-.3.9-.8 0-.5-.3-.8-.8-.9H425c-.5 0-.8.3-.9.8.1.5.4.9.9.9"/><path id="Path_61" class="st3" d="M413.7 220h22.6c.5 0 .8-.3.9-.8 0-.5-.3-.8-.8-.9H413.7c-.5 0-.8.4-.8.9.1.5.4.8.8.8"/></g></g><path id="Path_62" class="st3" d="M384.9 155.8v16.6l-7.3 7.3H361v-23.9h23.9z"/><g transform="translate(12.414 16.031)" id="Group_8153"><defs><path id="SVGID_00000095323521438850197330000018037181171419623855_" d="M0 0h657v651.1H0z"/></defs><clipPath id="SVGID_00000085226176568498349080000016715647293339936433_"><use xlink:href="#SVGID_00000095323521438850197330000018037181171419623855_" overflow="visible"/></clipPath><g id="Group_8152" clip-path="url(#SVGID_00000085226176568498349080000016715647293339936433_)"><path id="Path_63" class="st1" d="M349.4 162.9h15.5l6.8-6.8v-15.5h-22.3v22.3zm15.8 1.6h-16.6c-.5 0-.8-.4-.8-.8v-23.9c0-.5.4-.8.8-.8h23.9c.5 0 .8.4.8.8v16.6c0 .2-.1.4-.2.6l-7.3 7.3c-.2.1-.4.2-.6.2"/></g></g><path id="Path_64" class="st3" d="M384.9 172.4l-7.3 7.3v-7.3h7.3z"/><g transform="translate(12.414 16.031)" id="Group_8155"><defs><path id="SVGID_00000092434046897659106350000017071614854589558147_" d="M0 0h657v651.1H0z"/></defs><clipPath id="SVGID_00000003083763932861908290000004303081997865690002_"><use xlink:href="#SVGID_00000092434046897659106350000017071614854589558147_" overflow="visible"/></clipPath><g id="Group_8154" clip-path="url(#SVGID_00000003083763932861908290000004303081997865690002_)"><path id="Path_65" class="st1" d="M366 157.2v4.5l4.5-4.5H366zm-.8 7.3l-.3-.1c-.3-.1-.5-.4-.5-.8v-7.3c0-.5.4-.8.8-.8h7.3c.5 0 .8.4.8.8 0 .2-.1.4-.2.6l-7.3 7.3c-.2.2-.4.3-.6.3"/></g></g><path id="Path_66" class="st3" d="M130.2 284.3v16.6l-7.3 7.3h-16.6v-23.9h23.9z"/><g transform="translate(12.414 16.031)" id="Group_8157"><defs><path id="SVGID_00000046317552121298519820000012001503634683895192_" d="M0 0h657v651.1H0z"/></defs><clipPath id="SVGID_00000087383378629701762580000003137833021789987484_"><use xlink:href="#SVGID_00000046317552121298519820000012001503634683895192_" overflow="visible"/></clipPath><g id="Group_8156" clip-path="url(#SVGID_00000087383378629701762580000003137833021789987484_)"><path id="Path_67" class="st1" d="M94.7 291.4h15.5l6.8-6.8v-15.4H94.7v22.2zm15.8 1.6H93.9c-.5 0-.8-.4-.8-.8v-23.9c0-.5.4-.8.8-.8h23.9c.5 0 .8.4.8.8v16.6c0 .2-.1.4-.2.6l-7.3 7.3c-.2.1-.4.2-.6.2"/></g></g><path id="Path_68" class="st3" d="M130.2 300.9l-7.3 7.3v-7.3h7.3z"/><g transform="translate(12.414 16.031)" id="Group_8159"><defs><path id="SVGID_00000000182301504758049910000004687343014506008494_" d="M0 0h657v651.1H0z"/></defs><clipPath id="SVGID_00000116914787823647468780000003214838256597972100_"><use xlink:href="#SVGID_00000000182301504758049910000004687343014506008494_" overflow="visible"/></clipPath><g id="Group_8158" clip-path="url(#SVGID_00000116914787823647468780000003214838256597972100_)"><path id="Path_69" class="st1" d="M111.3 285.7v4.5l4.5-4.5h-4.5zm-.8 7.3l-.3-.1c-.3-.1-.5-.4-.5-.8v-7.3c0-.5.4-.8.8-.8h7.3c.5 0 .8.4.8.8 0 .2-.1.4-.2.6l-7.3 7.3c-.2.2-.4.3-.6.3"/></g></g><path id="Path_70" class="st3" d="M39.8 386.7v16.6l-7.3 7.3H15.8v-23.9h24z"/><g transform="translate(12.414 16.031)" id="Group_8161"><defs><path id="SVGID_00000084491999683441512470000014839786015025666965_" d="M0 0h657v651.1H0z"/></defs><clipPath id="SVGID_00000051379284475492272980000000958270015264528291_"><use xlink:href="#SVGID_00000084491999683441512470000014839786015025666965_" overflow="visible"/></clipPath><g id="Group_8160" clip-path="url(#SVGID_00000051379284475492272980000000958270015264528291_)"><path id="Path_71" class="st1" d="M4.2 393.8h15.5l6.8-6.8v-15.5H4.2v22.3zm15.8 1.6H3.4c-.5 0-.8-.4-.8-.8v-23.9c0-.5.4-.8.8-.8h23.9c.5 0 .8.4.8.8v16.6c0 .2-.1.4-.2.6l-7.3 7.3c-.1.1-.4.2-.6.2"/></g></g><path id="Path_72" class="st3" d="M39.8 403.3l-7.3 7.3v-7.3h7.3z"/><g transform="translate(12.414 16.031)" id="Group_8163"><defs><path id="SVGID_00000176038868830201528760000009231537461737154690_" d="M0 0h657v651.1H0z"/></defs><clipPath id="SVGID_00000182486113311136741880000017745971788819411391_"><use xlink:href="#SVGID_00000176038868830201528760000009231537461737154690_" overflow="visible"/></clipPath><g id="Group_8162" clip-path="url(#SVGID_00000182486113311136741880000017745971788819411391_)"><path id="Path_73" class="st1" d="M20.8 388.1v4.5l4.5-4.5h-4.5zm-.8 7.3l-.3-.1c-.3-.1-.5-.4-.5-.8v-7.3c0-.5.4-.8.8-.8h7.3c.5 0 .8.4.8.8 0 .2-.1.4-.2.6l-7.3 7.3c-.1.2-.4.3-.6.3"/><path id="Path_74" class="st1" d="M355.1 451.9h-2.3c-.5 0-.8.4-.8.9 0 .4.4.8.8.8h2.3c.5 0 .8-.4.8-.9 0-.4-.3-.8-.8-.8"/><path id="Path_75" class="st1" d="M372.6 451.9H361c-.5 0-.8.4-.8.9 0 .4.4.8.8.8h11.7c.5 0 .8-.4.8-.9-.1-.4-.4-.8-.9-.8"/><path id="Path_76" class="st1" d="M150.9 139c-.5 0-.8-.4-.8-.8v-.8c0-.5.4-.8.8-.8h.8c.5.8.1 1.9-.8 2.4"/><path id="Path_77" class="st1" d="M158.2 138.1h-1.6c-.5 0-.8-.4-.8-.9 0-.4.4-.8.8-.8h1.6c.5 0 .8.4.8.9s-.4.8-.8.8m6.4 0H163c-.5 0-.8-.3-.9-.8s.3-.8.8-.9H164.6c.5 0 .8.4.8.9s-.3.8-.8.8m6.5 0h-1.6c-.5 0-.8-.4-.8-.9 0-.4.4-.8.8-.8h1.6c.5 0 .8.3.9.8-.1.5-.4.9-.9.9m6.4 0h-1.6c-.5 0-.8-.4-.8-.9 0-.4.4-.8.8-.8h1.6c.5 0 .8.3.9.8 0 .5-.4.9-.9.9m6.5 0h-1.6c-.5 0-.8-.4-.8-.9 0-.4.4-.8.8-.8h1.6c.5 0 .8.4.8.9-.1.5-.4.8-.8.8m6.4 0h-1.6c-.5 0-.8-.4-.8-.9 0-.4.4-.8.8-.8h1.6c.5 0 .8.4.8.9s-.4.8-.8.8m6.4 0h-1.6c-.5 0-.8-.4-.8-.9 0-.4.4-.8.8-.8h1.6c.5 0 .8.3.9.8 0 .5-.4.9-.9.9.1 0 .1 0 0 0m6.5 0h-1.6c-.5 0-.8-.3-.9-.8s.3-.8.8-.9H203.3c.5 0 .8.4.8.9s-.4.8-.8.8m6.4 0h-1.6c-.5 0-.8-.4-.8-.9 0-.4.4-.8.8-.8h1.6c.5 0 .8.3.9.8 0 .5-.4.9-.9.9.1 0 0 0 0 0m6.5 0h-1.6c-.5 0-.8-.3-.9-.8s.3-.8.8-.9H216.2c.5 0 .8.4.8.9-.1.5-.4.8-.8.8m6.4 0H221c-.5 0-.8-.3-.9-.8s.3-.8.8-.9H222.6c.5 0 .8.3.9.8 0 .5-.4.9-.9.9m6.4 0h-1.6c-.5 0-.8-.3-.9-.8s.3-.8.8-.9H229c.5 0 .8.3.9.8 0 .5-.3.9-.9.9.1 0 .1 0 0 0m6.5 0h-1.6c-.5 0-.8-.4-.8-.9 0-.4.4-.8.8-.8h1.6c.5 0 .8.3.9.8 0 .5-.4.9-.9.9m6.4 0h-1.6c-.5 0-.8-.4-.8-.9 0-.4.4-.8.8-.8h1.6c.5 0 .8.4.8.9s-.3.8-.8.8m6.5 0h-1.6c-.5 0-.8-.4-.8-.9 0-.4.4-.8.8-.8h1.6c.5 0 .8.4.8.9s-.4.8-.8.8m6.4 0h-1.6c-.5 0-.8-.3-.9-.8s.3-.8.8-.9H254.8c.5 0 .8.3.9.8 0 .5-.4.9-.9.9.1 0 0 0 0 0m6.5 0h-1.6c-.5 0-.8-.4-.8-.9 0-.4.4-.8.8-.8h1.6c.5 0 .8.4.8.9-.1.5-.4.8-.8.8m6.4 0h-1.6c-.5 0-.8-.4-.8-.9 0-.4.4-.8.8-.8h1.6c.5 0 .8.4.8.9s-.4.8-.8.8m6.4 0h-1.6c-.5 0-.8-.3-.9-.8 0-.5.3-.8.8-.9H274.1c.5 0 .8.4.8.9s-.3.8-.8.8m6.5 0H279c-.5 0-.8-.3-.9-.8 0-.5.3-.8.8-.9H280.6c.5 0 .8.3.9.8 0 .5-.4.9-.9.9m6.4 0h-1.6c-.5 0-.8-.4-.8-.9 0-.4.4-.8.8-.8h1.6c.5 0 .8.4.8.9s-.3.8-.8.8m6.5 0h-1.6c-.5 0-.8-.4-.8-.9 0-.4.4-.8.8-.8h1.6c.5 0 .8.3.9.8-.1.5-.4.9-.9.9"/><path id="Path_78" class="st1" d="M299.1 139l-1.6-1.6c0-.5.4-.8.8-.8h.8c.5 0 .8.4.8.8v.8c.1.4-.3.8-.8.8"/><path id="Path_79" class="st1" d="M299.1 145.5c-.5 0-.8-.4-.8-.8v-1.6c0-.5.4-.8.9-.8.4 0 .8.4.8.8v1.6c0 .5-.4.8-.9.8m0 6.6c-.5 0-.8-.4-.8-.8v-1.6c0-.5.3-.8.8-.9.5 0 .8.3.9.8V151.3c0 .5-.4.8-.9.8m0 6.6c-.5 0-.8-.4-.8-.8v-1.6c0-.5.3-.8.8-.9.5 0 .8.3.9.8V157.9c0 .4-.4.8-.9.8m0 6.6c-.5 0-.8-.4-.8-.8v-1.7c0-.5.3-.8.8-.9.5 0 .8.3.9.8V164.4c0 .5-.4.9-.9.9m0 6.6c-.5 0-.8-.4-.8-.8v-1.6c0-.5.3-.8.8-.9.5 0 .8.3.9.8V171.1c-.1.4-.4.8-.9.8m0 6.6c-.5 0-.8-.4-.8-.8V176c0-.5.4-.8.9-.8.4 0 .8.4.8.8v1.6c-.1.5-.4.9-.9.9m0 6.6c-.5 0-.8-.4-.8-.8v-1.6c0-.5.3-.8.8-.9.5 0 .8.3.9.8V184.3c-.1.4-.4.8-.9.8m0 6.6c-.5 0-.8-.4-.8-.8v-1.6c0-.5.3-.8.8-.9.5 0 .8.3.9.8v1.8c-.1.3-.4.7-.9.7m0 6.5c-.5 0-.8-.4-.8-.8v-1.6c0-.5.3-.8.8-.9.5 0 .8.3.9.8V197.4c-.1.5-.4.8-.9.8m0 6.6c-.5 0-.8-.4-.8-.8v-1.6c0-.5.3-.8.8-.9.5 0 .8.3.9.8V204c-.1.5-.4.8-.9.8m0 6.6c-.5 0-.8-.4-.8-.8V209c0-.5.3-.8.8-.9.5 0 .8.3.9.8V210.6c-.1.4-.4.8-.9.8m0 6.6c-.5 0-.8-.4-.8-.8v-1.6c0-.5.3-.8.8-.9.5 0 .8.3.9.8V217.2c-.1.4-.4.8-.9.8m0 6.6c-.5 0-.8-.4-.8-.8v-1.6c0-.5.3-.8.8-.9.5 0 .8.3.9.8V223.8c-.1.4-.4.8-.9.8m0 6.6c-.5 0-.8-.4-.8-.8v-1.6c0-.5.3-.8.8-.9.5 0 .8.3.9.8V230.4c-.1.4-.4.8-.9.8"/><path id="Path_80" class="st1" d="M299.1 236.9h-.8c-.7-.2-1-1-.8-1.6s1-1 1.6-.8c.4.1.7.4.8.8v.8c.1.5-.3.8-.8.8"/><path id="Path_81" class="st1" d="M158.2 236.9h-1.6c-.5 0-.8-.3-.9-.8s.3-.8.8-.9H158.2c.5 0 .8.4.8.9s-.4.8-.8.8m6.4 0H163c-.5 0-.8-.3-.9-.8s.3-.8.8-.9H164.6c.5 0 .8.3.9.8s-.4.9-.9.9c.1 0 0 0 0 0m6.5 0h-1.6c-.5 0-.8-.4-.8-.9 0-.4.4-.8.8-.8h1.6c.5 0 .8.3.9.8s-.4.9-.9.9m6.4 0h-1.6c-.5 0-.8-.4-.8-.9 0-.4.4-.8.8-.8h1.6c.5 0 .8.3.9.8s-.4.9-.9.9m6.5 0h-1.6c-.5 0-.8-.4-.8-.9 0-.4.4-.8.8-.8h1.6c.5 0 .8.3.9.8s-.4.9-.9.9m6.4 0h-1.6c-.5 0-.8-.3-.9-.8s.3-.8.8-.9H190.4c.5 0 .8.4.8.9s-.4.8-.8.8m6.4 0h-1.6c-.5 0-.8-.3-.9-.8s.3-.8.8-.9H196.8c.5 0 .8.3.9.8s-.4.9-.9.9c.1 0 .1 0 0 0m6.5 0h-1.6c-.5 0-.8-.3-.9-.8s.3-.8.8-.9H203.3c.5 0 .8.4.8.9s-.4.8-.8.8m6.4 0h-1.6c-.5 0-.8-.4-.8-.9 0-.4.4-.8.8-.8h1.6c.5 0 .8.3.9.8s-.4.9-.9.9c.1 0 0 0 0 0m6.5 0h-1.6c-.5 0-.8-.3-.9-.8s.3-.8.8-.9H216.2c.5 0 .8.4.8.9-.1.5-.4.8-.8.8m6.4 0H221c-.5 0-.8-.4-.8-.9 0-.4.4-.8.8-.8h1.6c.5 0 .8.3.9.8s-.4.9-.9.9m6.4 0h-1.6c-.5 0-.8-.3-.9-.8s.3-.8.8-.9H229c.5 0 .8.3.9.8s-.3.9-.9.9c.1 0 .1 0 0 0m6.5 0h-1.6c-.5 0-.8-.4-.8-.9 0-.4.4-.8.8-.8h1.6c.5 0 .8.3.9.8s-.4.9-.9.9m6.4 0h-1.6c-.5 0-.8-.4-.8-.9 0-.4.4-.8.8-.8h1.6c.5 0 .8.4.8.9s-.3.8-.8.8m6.5 0h-1.6c-.5 0-.8-.4-.8-.9 0-.4.4-.8.8-.8h1.6c.5 0 .8.4.8.9s-.4.8-.8.8m6.4 0h-1.6c-.5 0-.8-.3-.9-.8s.3-.8.8-.9H254.8c.5 0 .8.3.9.8s-.4.9-.9.9c.1 0 0 0 0 0m6.5 0h-1.6c-.5 0-.8-.4-.8-.9 0-.4.4-.8.8-.8h1.6c.5 0 .8.4.8.9-.1.5-.4.8-.8.8m6.4 0h-1.6c-.5 0-.8-.4-.8-.9 0-.4.4-.8.8-.8h1.6c.5 0 .8.4.8.9s-.4.8-.8.8m6.4 0h-1.6c-.5 0-.8-.3-.9-.8 0-.5.3-.8.8-.9H274.1c.5 0 .8.4.8.9s-.3.8-.8.8m6.5 0H279c-.5 0-.8-.3-.9-.8 0-.5.3-.8.8-.9H280.6c.5 0 .8.3.9.8 0 .5-.4.9-.9.9m6.4 0h-1.6c-.5 0-.8-.4-.8-.9 0-.4.4-.8.8-.8h1.6c.5 0 .8.4.8.9s-.3.8-.8.8m6.5 0h-1.6c-.5 0-.8-.4-.8-.9 0-.4.4-.8.8-.8h1.6c.5 0 .8.3.9.8-.1.5-.4.9-.9.9"/><path id="Path_82" class="st1" d="M151.7 236.9h-.8c-.5 0-.8-.4-.8-.8v-.8c.2-.7 1-1 1.6-.8s1 1 .8 1.6c-.1.4-.4.7-.8.8"/><path id="Path_83" class="st1" d="M150.9 145.5c-.5 0-.8-.4-.8-.8v-1.6c0-.5.4-.8.9-.8.4 0 .8.4.8.8v1.6c-.1.5-.4.8-.9.8m0 6.6c-.5 0-.8-.4-.8-.8v-1.6c0-.5.4-.8.9-.8.4 0 .8.4.8.8v1.6c-.1.5-.4.8-.9.8m0 6.6c-.5 0-.8-.4-.8-.8v-1.6c0-.5.4-.8.9-.8.4 0 .8.4.8.8v1.6c-.1.4-.4.8-.9.8m0 6.6c-.5 0-.8-.4-.8-.8v-1.7c0-.5.4-.8.9-.8.4 0 .8.4.8.8v1.6c-.1.5-.4.9-.9.9m0 6.6c-.5 0-.8-.4-.8-.8v-1.6c0-.5.4-.8.9-.8.4 0 .8.4.8.8v1.6c-.1.4-.4.8-.9.8m0 6.6c-.5 0-.8-.4-.8-.8V176c0-.5.4-.8.9-.8.4 0 .8.4.8.8v1.6c-.1.5-.4.9-.9.9m0 6.6c-.5 0-.8-.4-.8-.8v-1.6c0-.5.3-.8.8-.9.5 0 .8.3.9.8V184.3c-.1.4-.4.8-.9.8m0 6.6c-.5 0-.8-.4-.8-.8v-1.6c0-.5.3-.8.8-.9.5 0 .8.3.9.8v1.8c-.1.3-.4.7-.9.7m0 6.5c-.5 0-.8-.4-.8-.8v-1.6c0-.5.3-.8.8-.9.5 0 .8.3.9.8V197.4c-.1.5-.4.8-.9.8m0 6.6c-.5 0-.8-.4-.8-.8v-1.6c0-.5.4-.8.9-.8.4 0 .8.4.8.8v1.6c-.1.5-.4.8-.9.8m0 6.6c-.5 0-.8-.4-.8-.8V209c0-.5.3-.8.8-.9.5 0 .8.3.9.8V210.6c-.1.4-.4.8-.9.8m0 6.6c-.5 0-.8-.4-.8-.8v-1.6c0-.5.3-.8.8-.9.5 0 .8.3.9.8V217.2c-.1.4-.4.8-.9.8m0 6.6c-.5 0-.8-.4-.8-.8v-1.6c0-.5.3-.8.8-.9.5 0 .8.3.9.8V223.8c-.1.4-.4.8-.9.8m0 6.6c-.5 0-.8-.4-.8-.8v-1.6c0-.5.3-.8.8-.9.5 0 .8.3.9.8V230.4c-.1.4-.4.8-.9.8"/><path id="Path_84" class="st2" d="M227.5 137.3c0 1.3-1.1 2.4-2.4 2.4s-2.4-1.1-2.4-2.4c0-1.3 1.1-2.4 2.4-2.4 1.3 0 2.4 1.1 2.4 2.4"/><path id="Path_85" class="st2" d="M153.4 186.7c0 1.3-1.1 2.4-2.4 2.4-1.3 0-2.4-1.1-2.4-2.4 0-1.3 1.1-2.4 2.4-2.4 1.3 0 2.4 1.1 2.4 2.4"/><path id="Path_86" class="st2" d="M227.5 236.1c0 1.3-1.1 2.4-2.4 2.4-1.3 0-2.4-1.1-2.4-2.4 0-1.3 1.1-2.4 2.4-2.4 1.3 0 2.4 1.1 2.4 2.4"/><path id="Path_87" class="st2" d="M301.6 186.7c0 1.3-1.1 2.4-2.4 2.4-1.3 0-2.4-1.1-2.4-2.4s1.1-2.4 2.4-2.4c1.3 0 2.4 1.1 2.4 2.4"/></g></g><path id="Rectangle_35" class="st2" d="M308.7 249.3h5.7v5.7h-5.7z"/><path id="Rectangle_36" class="st2" d="M308.7 150.5h5.7v5.7h-5.7z"/><path id="Rectangle_37" class="st2" d="M160.5 249.3h5.7v5.7h-5.7z"/><path id="Rectangle_38" class="st2" d="M160.5 150.5h5.7v5.7h-5.7z"/><path id="Rectangle_39" class="st3" d="M173.2 162.1h129v82h-129z"/><g transform="translate(12.414 16.031)" id="Group_8165"><defs><path id="SVGID_00000052820179202249956550000016339797137037532583_" d="M0 0h657v651.1H0z"/></defs><clipPath id="SVGID_00000082361944005054886200000004878717779720579209_"><use xlink:href="#SVGID_00000052820179202249956550000016339797137037532583_" overflow="visible"/></clipPath><g id="Group_8164" clip-path="url(#SVGID_00000082361944005054886200000004878717779720579209_)"><path id="Path_88" class="st1" d="M161.6 227.2H289v-80.3H161.6v80.3zm128.1 1.6h-129c-.5 0-.8-.4-.8-.8v-82c0-.5.4-.8.8-.8h129c.5 0 .8.4.8.8v82c.1.5-.3.8-.8.8"/></g></g><path id="Path_89" class="st2" d="M302.2 219.8l-14.3 14.3-38.9-38.7-16.3 16.3-26-26-33.5 33.5V244h129v-24.2z"/><g transform="translate(12.414 16.031)" id="Group_8167"><defs><path id="SVGID_00000088124954422476854460000018376252354713654931_" d="M0 0h657v651.1H0z"/></defs><clipPath id="SVGID_00000090269212216124235830000009726553981753187261_"><use xlink:href="#SVGID_00000088124954422476854460000018376252354713654931_" overflow="visible"/></clipPath><g id="Group_8166" clip-path="url(#SVGID_00000090269212216124235830000009726553981753187261_)"><path id="Path_90" class="st9" d="M272.1 169.3c0 5-4.1 9.1-9.1 9.1s-9.1-4.1-9.1-9.1 4.1-9.1 9.1-9.1c5.1 0 9.1 4.1 9.1 9.1"/><path id="Path_91" class="st2" d="M599 602.9c-12.8 20.9-77.8 30.7-113.2 29.7-35.4-.9-137.5-49.2-144.4-59.5-6.4-9.5-22.2-40.8 2.1-59.7 2.1-1.6 4.2-3 6.5-4.2 16.6-9 127.2 19.4 127.2 19.4s6.8-4.3 9.4-4c7.7 1 13.2 7.2 28.8 11.7 4.4 1.3 11.9.1 20.5-1.2 12.7-1.8 27.9-3.6 39.2 2.6 2.1 1.1 4.1 2.5 5.8 4.2 17.8 17 30.9 40.1 18.1 61"/><path id="Path_92" class="st3" d="M579.1 621.7l1.6 7.1s-4.3 12.3-23.5 14.4c-19.1 2-30.4 6.3-39.6 6.8-4.8.4-9.7.3-14.5-.2l-1.9-2.8 77.9-25.3z"/><path id="Path_93" class="st1" d="M503.6 648.9c4.6.4 9.3.5 13.9.2 4.8-.5 9.5-1.3 14.1-2.4 8.4-2 16.9-3.4 25.5-4.4 16.9-1.8 21.9-11.8 22.6-13.5l-1.3-5.8-75.7 24.5.9 1.4zm7.6 2.2c-2.8 0-5.5-.1-8.3-.4-.3 0-.5-.2-.6-.4l-1.9-2.8c-.3-.4-.2-1 .3-1.3.1 0 .2-.1.2-.1l77.9-25.3c.3-.1.5-.1.8.1.2.1.4.4.5.6l1.6 7.1v.5c-.2.5-4.8 12.9-24.3 15-8.5 1-16.9 2.4-25.3 4.3-4.7 1.2-9.5 2-14.4 2.5-2.5.2-4.6.2-6.5.2"/><path id="Path_94" class="st6" d="M468.1 621l33.1 26s25.7-2 47.5-7.1c15.7-3.6 29.4-8.8 30.2-16 1.1-10.9-10.5-13.8-24.3-13.4-2.6.1-5.2.3-7.9.5-22.1 2.4-50.1-9.8-50.1-9.8L468.1 621z"/></g></g><g transform="translate(480.487 617.18)" id="Group_8169"><defs><path id="SVGID_00000048460340782452152480000005928924634756938391_" d="M0 19.8l33.1 26s25.7-2 47.5-7.1c15.7-3.6 29.4-8.8 30.2-16 1.1-10.9-10.5-13.8-24.3-13.4-2.6.1-5.2.3-7.9.5C56.6 12.2 28.5 0 28.5 0L0 19.8z"/></defs><clipPath id="SVGID_00000063598541561408829890000000916550975230496951_"><use xlink:href="#SVGID_00000048460340782452152480000005928924634756938391_" overflow="visible"/></clipPath><g id="Group_8168" clip-path="url(#SVGID_00000063598541561408829890000000916550975230496951_)"><path id="Path_95" class="st21" d="M53.6-3.8l-9 6.2L30.7 12l11.5 9c3.6 1.3 7.3 2.3 11 3.2-.4-.9-.5-1.8-.2-2.8.3-1.1 1.2-1.9 2.4-2 .4-.1.8-.1 1.1-.1 3.6 0 8.1 2.4 8.9 5 .2.6.2 1.3-.1 2 3.5.4 7 .6 10.5.6 6 0 12-.6 17.8-1.9C90 14.6 97 6 99.1 3.7H99c-1.7.1-3.4.2-5.1.4-1.6.2-3.2.2-4.8.2-3.6 0-7.1-.3-10.7-.9-8.5-1.5-16.8-3.9-24.8-7.2"/></g></g><g transform="translate(12.414 16.031)" id="Group_8171"><defs><path id="SVGID_00000088098792735943152150000005878122417378119584_" d="M0 0h657v651.1H0z"/></defs><clipPath id="SVGID_00000063627508621367467980000002432363811219792800_"><use xlink:href="#SVGID_00000088098792735943152150000005878122417378119584_" overflow="visible"/></clipPath><g id="Group_8170" clip-path="url(#SVGID_00000063627508621367467980000002432363811219792800_)"><path id="Path_97" class="st3" d="M499 631.2c-6 1 .6 13.2 8.7 9.5 8-3.7-2.8-10.5-8.7-9.5"/><path id="Path_98" class="st1" d="M499 631.2zm1.2.8c-.4 0-.7 0-1.1.1-.7 0-1.2.5-1.4 1.1-.4 1.3.5 3.7 2.6 5.5 1.9 1.8 4.7 2.2 7 1.1 1.8-.8 2.6-1.8 2.3-2.9-.8-2.4-5.8-4.9-9.4-4.9m4.3 10.3c-2.1 0-4-.8-5.6-2.2-2.4-2.1-3.8-5.2-3.1-7.4.4-1.4 1.6-2.3 3-2.5 4.6-.8 11.4 2.5 12.5 6.1.4 1.2.4 3.5-3.3 5.2-1.1.5-2.2.8-3.5.8"/></g></g><g transform="translate(508.108 646.186)" id="Group_8175"><defs><path id="SVGID_00000143617030148727388200000000075440122988477602_" d="M4.5 8.6C2.5 6.8 1.6 4.4 2 3.1c.2-.6.7-1.1 1.4-1.1.4-.1.7-.1 1.1-.1 3.6 0 8.6 2.5 9.3 4.9.3 1.1-.4 2.1-2.3 2.9-.8.4-1.8.6-2.7.6-1.6-.1-3.1-.7-4.3-1.7M3.1.1C1.7.2.5 1.2.1 2.6-.5 4.8.9 7.9 3.3 10c1.5 1.4 3.5 2.1 5.6 2.2 1.2 0 2.4-.3 3.5-.8 3.7-1.7 3.7-4 3.3-5.2C14.6 3 9 0 4.5 0 4 0 3.6 0 3.1.1"/></defs><clipPath id="SVGID_00000150095721961388021220000001709700018939327895_"><use xlink:href="#SVGID_00000143617030148727388200000000075440122988477602_" overflow="visible"/></clipPath><g id="Group_8174" clip-path="url(#SVGID_00000150095721961388021220000001709700018939327895_)"><g transform="translate(26.067 -8.735)" id="Group_8173"><defs><path id="SVGID_00000094616420430130928200000011063752137932363187_" d="M1.9.1c-4.8.8.5 10.6 7 7.6S6.6-.7 1.9.1"/></defs><clipPath id="SVGID_00000047768964815507748950000011151455714233490111_"><use xlink:href="#SVGID_00000094616420430130928200000011063752137932363187_" overflow="visible"/></clipPath><g id="Group_8172" clip-path="url(#SVGID_00000047768964815507748950000011151455714233490111_)"><path id="Path_99" d="M2.9 0c-.3 0-.7 0-1 .1C1.3.1.8.4.4.9-.2 2-.1 3.3.5 4.3c.3.1.7.1 1 .2-.4-.7-.7-1.4-.7-2.2 0-.2 0-.3.1-.5.1-.6.5-.9 1.1-1 .3 0 .6-.1.9-.1 2.9 0 6.9 2 7.5 3.9 0 .1.1.3.1.4 0 .3-.2.7-.4.9l.9.1c.7-1.2 0-2.6-1.3-3.7C7.6.9 5.3.1 2.9 0" fill="#212b30"/></g></g></g></g><g transform="translate(12.414 16.031)" id="Group_8177"><defs><path id="SVGID_00000121253338114671524640000012528021735500752012_" d="M0 0h657v651.1H0z"/></defs><clipPath id="SVGID_00000153670754861981165880000009606086511420526231_"><use xlink:href="#SVGID_00000121253338114671524640000012528021735500752012_" overflow="visible"/></clipPath><g id="Group_8176" clip-path="url(#SVGID_00000153670754861981165880000009606086511420526231_)"><path id="Path_102" class="st3" d="M548.7 639.8c15.7-3.6 29.4-8.8 30.2-16 1.1-10.9-10.5-13.8-24.2-13.4-.7.6-14.1 13.6-6 29.4"/><path id="Path_103" class="st1" d="M555 611.4c-1.9 1.9-12.3 13.5-5.8 27.4 23-5.4 28.3-11.1 28.7-15 .4-2.6-.4-5.3-2.2-7.3-3.3-3.7-10.4-5.4-20.7-5.1m-6.3 29.4c-.4 0-.7-.2-.8-.5-8.3-16.4 5.5-29.9 6.1-30.5.2-.2.4-.3.6-.3 11.2-.3 18.8 1.6 22.6 5.6 2.2 2.4 3.1 5.6 2.7 8.8-.7 6.6-11.1 12.2-30.9 16.8l-.3.1z"/></g></g><g transform="translate(575.86 625.905)" id="Group_8179"><defs><path id="SVGID_00000172400627103029003180000017089340167314368900_" d="M0 1.8c5.8.6 10 2.2 12.3 4.7 1.8 2 2.6 4.7 2.2 7.3v.3c.7-.3 1.4-.6 2-.9.3-2.9-.7-5.9-2.7-8.1C11.2 2.5 6.9.8 1 0 .6.6.3 1.2 0 1.8"/></defs><clipPath id="SVGID_00000106859136967675891580000007162015557392520626_"><use xlink:href="#SVGID_00000172400627103029003180000017089340167314368900_" overflow="visible"/></clipPath><g id="Group_8178" clip-path="url(#SVGID_00000106859136967675891580000007162015557392520626_)"><path id="Path_104" d="M6.8-5.1h-2c-.5.4-10 9.6-5.7 21.3.2-.1.5-.1.7-.2-.7-1.9-1-3.9-1-5.9C-1.2 2.6 4-3.1 5.1-4.3h1.7c7.3 0 12.5 1.4 14.9 4.1 1.2 1.3 1.8 3 1.8 4.8 0 .4 0 .7-.1 1.1v.2c.3-.1.5-.2.8-.3.4-3-1-6-3.6-7.7-2.3-1.5-5.6-2.4-9.3-2.7-1.4-.2-2.9-.3-4.5-.3" fill="#1f262b"/></g></g><g transform="translate(12.414 16.031)" id="Group_8181"><defs><path id="SVGID_00000025418722048991858150000018219586189561135256_" d="M0 0h657v651.1H0z"/></defs><clipPath id="SVGID_00000007388933253118820820000016046865376644303781_"><use xlink:href="#SVGID_00000025418722048991858150000018219586189561135256_" overflow="visible"/></clipPath><g id="Group_8180" clip-path="url(#SVGID_00000007388933253118820820000016046865376644303781_)"><path id="Path_106" class="st3" d="M537.5 626.4c1 .1 1.8-.6 1.8-1.5.3-6.8 5.6-12.4 5.6-12.5.6-.7.6-1.7-.1-2.3-.6-.6-1.7-.6-2.3 0-.3.3-6.2 6.5-6.6 14.6.1.8.7 1.6 1.6 1.7"/><path id="Path_107" class="st1" d="M537.6 625.4c.2 0 .4-.1.6-.2.1-.1.2-.3.2-.5.3-7.2 5.9-13 5.9-13.1.3-.3.2-.7 0-1-.3-.3-.7-.2-1 0-.2.2-5.9 6.3-6.3 14 0 .4.2.8.6.8m.1 1.9h-.2c-1.4-.1-2.4-1.3-2.3-2.7.4-8.3 6.2-14.5 6.8-15.2 1-1 2.6-1.1 3.7-.1 1 1 1.1 2.6.1 3.7-.1.1-5.1 5.4-5.4 11.9-.2 1.3-1.3 2.4-2.7 2.4"/><path id="Path_108" class="st3" d="M530.9 626.7h.1c.9 0 1.7-.7 1.7-1.6.1-6.9 5-12.9 5-13 .6-.7.4-1.7-.3-2.3-.7-.5-1.7-.4-2.3.2-.2.3-5.6 6.9-5.8 15 .2.9.8 1.7 1.6 1.7"/><path id="Path_109" class="st1" d="M536.5 610.5c-.2 0-.4.1-.5.3-.1.1-5.4 6.6-5.5 14.4 0 .4.3.7.6.7l-.1.9.1-.9c.2 0 .4-.1.5-.2.1-.1.2-.3.2-.5.1-7.2 5.2-13.5 5.2-13.5.2-.3.2-.7-.1-1l-.4-.2zm-5.4 17.2h-.3c-1.3-.1-2.3-1.3-2.3-2.6.2-8.4 5.7-15.3 6-15.6.9-1.1 2.5-1.3 3.6-.4s1.3 2.5.4 3.6c0 .1-4.7 5.8-4.8 12.4 0 1.5-1.2 2.6-2.6 2.6"/><path id="Path_110" class="st3" d="M523.1 625.9c.9.1 1.7-.6 1.8-1.5.5-5.7 5.4-13.1 5.4-13.2.5-.8.3-1.8-.4-2.3s-1.8-.3-2.3.4c-.2.3-5.4 8.1-6 14.7 0 1 .6 1.8 1.5 1.9"/><path id="Path_111" class="st1" d="M523.2 625h.1l.4-.2c.1-.1.2-.3.2-.5.5-6 5.5-13.5 5.6-13.6.2-.3.1-.7-.2-1-.2-.1-.3-.1-.5-.1s-.3.1-.4.3c-.1.1-5.3 7.9-5.8 14.3-.1.4.2.7.6.8m.1 1.9h-.2c-1.4-.2-2.4-1.4-2.3-2.8.6-6.9 5.9-14.8 6.1-15.1.8-1.2 2.4-1.5 3.6-.7 1.2.8 1.5 2.4.7 3.6 0 .1-4.8 7.2-5.3 12.7-.2 1.2-1.3 2.3-2.6 2.3"/><path id="Path_112" class="st3" d="M515.7 625.1h.4c.9-.1 1.5-1 1.3-1.9-1.2-7 5.3-12.9 5.4-13 .7-.6.7-1.6.1-2.3-.6-.7-1.6-.7-2.3-.1-.3.3-7.9 7.2-6.4 16 .2.7.7 1.3 1.5 1.3"/><path id="Path_113" class="st1" d="M515.8 624.2h.2c.2 0 .3-.1.4-.3.1-.1.2-.3.1-.5-1.2-7.4 5.4-13.6 5.7-13.8.3-.3.3-.7.1-1-.3-.3-.7-.3-1-.1-.3.3-7.5 6.9-6.1 15.1 0 .3.3.6.6.6m.1 1.9h-.3c-1.2-.1-2.1-1-2.3-2.1-1.5-9.2 6.4-16.5 6.7-16.8 1.1-1 2.7-.9 3.6.2.9 1.1.9 2.7-.2 3.6-.1.1-6.1 5.7-5.1 12.1.2 1.4-.7 2.7-2.1 3h-.3z"/><path id="Path_114" class="st3" d="M507.6 623.2c.9.1 1.7-.6 1.8-1.5v-.5c-1.4-6.2 4.7-13.2 4.8-13.3.6-.7.5-1.7-.1-2.3-.7-.6-1.7-.5-2.3.1-.3.3-7.3 8.3-5.5 16.2.1.7.6 1.2 1.3 1.3"/><path id="Path_115" class="st1" d="M507.7 622.3h.2c.4-.1.6-.5.5-.8-1.5-6.6 4.7-13.8 5-14.1.3-.3.2-.7-.1-1s-.7-.2-1 .1c-.1.1-7 7.9-5.3 15.4.2.1.4.3.7.4m.1 1.9h-.3c-1.1-.1-2-.9-2.2-2-1.9-8.4 5.4-16.7 5.7-17 1-1 2.6-1.1 3.7-.1 1 .9 1.1 2.5.2 3.6-.1.1-5.8 6.8-4.5 12.5.3 1.4-.5 2.8-1.9 3.1-.3-.2-.5-.1-.7-.1"/><path id="Path_116" class="st3" d="M337.2 611l-2.4 6.9s3 12.7 21.8 16.7 29.6 9.4 38.7 10.9c4.8.9 9.6 1.3 14.5 1.3l2.2-2.6-74.8-33.2z"/><path id="Path_117" class="st1" d="M335.8 618c.5 1.8 4.3 12.2 21 15.8 8.4 1.9 16.7 4.2 24.9 7 4.5 1.6 9.1 2.9 13.8 3.9 4.6.8 9.2 1.2 13.9 1.3l1.1-1.3-72.7-32.4-2 5.7zm73.2 29.9c-4.6-.1-9.3-.5-13.8-1.3-4.8-1-9.5-2.3-14-4-8.1-2.8-16.3-5.1-24.7-7-19.2-4.1-22.4-16.9-22.6-17.5v-.5l2.4-6.9c.2-.5.7-.8 1.2-.6h.1l74.8 33.3c.5.2.7.8.5 1.2 0 .1-.1.2-.1.2l-2.2 2.6c-.2.2-.4.3-.7.3 0 .2-.3.2-.9.2"/><path id="Path_118" class="st6" d="M447.7 622L412 644.3s-25.3-4.7-46.5-12.1c-15.2-5.3-28.3-11.9-28.3-19.1 0-10.9 11.9-12.7 25.5-10.8 2.6.3 5.2.8 7.8 1.4 21.7 4.7 50.9-4.5 50.9-4.5l26.3 22.8z"/></g></g><g transform="translate(349.641 615.296)" id="Group_8183"><defs><path id="SVGID_00000041976660036550828510000006688268213065354911_" d="M33.3 4.5c-2.6-.6-5.2-1-7.8-1.4C11.9 1.3 0 3 0 13.9 0 21.1 13.1 27.7 28.3 33c21.2 7.3 46.5 12.1 46.5 12.1l35.7-22.4L84.2 0S55 9.2 33.3 4.5"/></defs><clipPath id="SVGID_00000018211970824681877750000016345924300924592829_"><use xlink:href="#SVGID_00000041976660036550828510000006688268213065354911_" overflow="visible"/></clipPath><g id="Group_8182" clip-path="url(#SVGID_00000018211970824681877750000016345924300924592829_)"><path id="Path_119" class="st21" d="M124.2-3.4c-.7.2-15.2 4.7-29.7 4.7h-.2c8.6 11.4 20.5 19.8 34.2 24.1l16.8-10.6-21.1-18.2z"/></g></g><g transform="translate(12.414 16.031)" id="Group_8185"><defs><path id="SVGID_00000025423168357047906520000017881845962844824210_" d="M0 0h657v651.1H0z"/></defs><clipPath id="SVGID_00000016057963277664105410000011053064060045943960_"><use xlink:href="#SVGID_00000025423168357047906520000017881845962844824210_" overflow="visible"/></clipPath><g id="Group_8184" clip-path="url(#SVGID_00000016057963277664105410000011053064060045943960_)"><path id="Path_121" class="st3" d="M365.5 632.3c-15.2-5.3-28.3-11.9-28.3-19.1 0-10.9 11.9-12.7 25.5-10.8.6.7 12.5 14.9 2.8 29.9"/><path id="Path_122" class="st1" d="M354.1 602.7c-6 0-10.4 1.2-13 3.4-2 1.8-3.1 4.4-2.9 7.1 0 3.9 4.7 10.1 27 17.9 8-13.1-1.2-25.8-2.9-27.8-2.7-.4-5.5-.6-8.2-.6m11.4 30.5l-.3-.1c-19.2-6.6-28.9-13.4-28.9-20-.2-3.2 1.2-6.3 3.6-8.5 4.2-3.7 11.9-4.7 23-3.2.2 0 .4.1.6.3.5.6 12.9 15.5 2.9 31-.2.3-.5.5-.9.5"/><path id="Path_123" class="st3" d="M378.1 620c-1-.1-1.7-.8-1.6-1.7.4-6.8-4.3-12.9-4.3-13-.6-.7-.4-1.7.3-2.3.7-.6 1.7-.4 2.3.3.2.3 5.5 7.1 5 15.2-.1.9-.8 1.5-1.7 1.5"/><path id="Path_124" class="st1" d="M373.4 603.6l-.4.1c-.3.2-.4.7-.1 1 0 0 4.9 6.4 4.5 13.6 0 .4.3.7.7.7v.9-.9c.4 0 .7-.3.7-.7.4-7.8-4.6-14.3-4.8-14.6-.1 0-.3-.1-.6-.1m4.7 17.4c-.8 0-1.5-.3-1.9-.9-.5-.5-.7-1.2-.7-1.9.4-6.5-4.1-12.3-4.1-12.4-.9-1.1-.7-2.8.5-3.6 1.1-.9 2.7-.7 3.6.4.2.3 5.7 7.4 5.2 15.8-.1 1.5-1.2 2.6-2.6 2.6"/><path id="Path_125" class="st3" d="M384.6 621.1h-.1c-.9-.1-1.6-.9-1.5-1.8.6-6.9-3.6-13.4-3.6-13.4-.5-.8-.3-1.8.5-2.3.7-.5 1.7-.3 2.2.5.2.3 4.8 7.5 4.2 15.5-.2.9-.9 1.5-1.7 1.5"/><path id="Path_126" class="st1" d="M380.7 604.3l-.4.1c-.3.2-.4.6-.2 1 .2.3 4.4 6.9 3.8 14 0 .2 0 .4.2.5.1.1.3.2.5.2l.1.9v-.9c.4 0 .7-.3.7-.6.7-7.7-3.8-14.6-4-14.9-.3-.2-.5-.3-.7-.3m3.9 17.7h-.3c-1.4-.1-2.4-1.4-2.3-2.8.6-6.4-3.3-12.6-3.5-12.8-.8-1.2-.4-2.8.7-3.6s2.8-.4 3.6.7c.2.3 5 7.7 4.3 16.1-.1 1.4-1.2 2.4-2.5 2.4"/><path id="Path_127" class="st3" d="M392.5 621.1c-.9 0-1.7-.8-1.6-1.7.1-5.8-4-13.6-4-13.7-.4-.8-.1-1.8.7-2.2.8-.4 1.8-.1 2.2.7.2.4 4.5 8.6 4.4 15.3-.1.9-.8 1.6-1.7 1.6"/><path id="Path_128" class="st1" d="M388.2 604.3l-.3.1c-.3.2-.5.6-.3.9 0 .1 4.2 8.1 4.1 14.1 0 .4.3.7.7.7v.9-.9c.4 0 .7-.3.7-.7.1-6.4-4.1-14.5-4.3-14.8-.1-.2-.2-.3-.4-.3h-.2zm4.3 17.8c-1.5 0-2.6-1.2-2.6-2.6.1-4.6-2.8-11.1-3.9-13.2-.7-1.3-.2-2.8 1.1-3.5 1.3-.7 2.8-.2 3.5 1.1.2.4 4.6 8.8 4.5 15.7-.1 1.3-1.2 2.5-2.6 2.5"/><path id="Path_129" class="st3" d="M399.9 621.1l-.4-.1c-.9-.2-1.4-1.1-1.1-2 1.9-6.8-3.9-13.4-4-13.5-.6-.7-.5-1.7.1-2.3.7-.6 1.7-.5 2.3.1.3.3 7.1 8 4.7 16.5-.2.8-.8 1.3-1.6 1.3"/><path id="Path_130" class="st1" d="M395.6 603.8l-.5.2c-.3.3-.3.7-.1 1 .1.1 6.2 7.1 4.2 14.4-.1.4.1.7.5.9.4.1.7-.1.9-.5 2.2-8-4.2-15.4-4.5-15.7-.1-.2-.3-.3-.5-.3m4.3 18.3c-.2 0-.5 0-.7-.1-1.4-.4-2.2-1.8-1.8-3.2 1.7-6.3-3.7-12.5-3.8-12.6-.9-1.1-.8-2.7.2-3.6 1.1-.9 2.6-.8 3.6.2.3.3 7.4 8.4 4.9 17.4-.2 1.1-1.2 1.9-2.4 1.9"/><path id="Path_131" class="st3" d="M408.1 620c-.9 0-1.6-.7-1.6-1.6 0-.2 0-.4.1-.5 2.1-6-3.3-13.6-3.3-13.7-.5-.7-.3-1.8.4-2.3.7-.5 1.7-.3 2.2.4.3.4 6.4 9.1 3.8 16.7-.2.6-.9 1-1.6 1"/><path id="Path_132" class="st1" d="M404.6 602.5l-.4.1c-.3.2-.4.7-.2 1 .2.3 5.7 8.1 3.5 14.6-.1.4.1.8.4.9.4.1.7-.1.9-.4 2.5-7.2-3.4-15.5-3.6-15.8-.1-.1-.3-.2-.4-.3l-.2-.1zm3.5 18.5c-1.4 0-2.6-1.2-2.6-2.6 0-.3 0-.6.1-.8 1.9-5.5-3.2-12.8-3.2-12.9-.8-1.2-.6-2.8.6-3.6.6-.4 1.2-.6 1.9-.4.7.1 1.3.5 1.7 1 .3.4 6.7 9.5 3.9 17.5-.3 1.1-1.3 1.8-2.4 1.8"/><path id="Path_133" class="st3" d="M415.9 628.9c5.8 1.6-2 13.1-9.6 8.5s3.8-10.1 9.6-8.5"/><path id="Path_134" class="st1" d="M413.6 629.6c-3.5 0-7.9 1.8-8.8 3.9-.4 1 .2 2.1 2 3.1 2.2 1.3 5 1.2 7.1-.4 2.2-1.5 3.3-3.8 3.1-5.2-.1-.7-.6-1.2-1.3-1.3-.7-.1-1.4-.1-2.1-.1m-3.6 9.8c-1.5 0-2.9-.4-4.2-1.2-3.5-2.1-3.2-4.3-2.7-5.5 1.5-3.4 8.6-6 13.1-4.8 1.4.3 2.4 1.4 2.7 2.8.4 2.3-1.3 5.2-3.9 7-1.5 1.1-3.2 1.7-5 1.7"/><path id="Path_135" class="st2" d="M348.5 568.1c8.8 12.3 34.7 25.8 60.6 37 4.6 7.6 10.1 14.7 16.2 21.2 15.9 16.4 22.4 7.2 22.4 7.2s10.1-1.1 24.9-3.2c1 1.9 3.2 4.9 7.5 4.2 1.9-.3 5.7-3.1 9.8-6.7 37.5-5.6 88.4-15.1 102.1-26.1"/><path id="Path_136" class="st1" d="M578.1 544.1c-2.2-2.5-5-4.5-8.1-5.7-3.3-1.1-6.8-1.6-10.3-1.5-2.6 0-5.6.2-8.9.4h-.2s-35.6 11.3-60.5 26.4c-12.3 7.5-27.6 15.2-39.7 21-6.1 2.9-11.4 5.3-15.1 7-1.9.9-3.4 1.5-4.4 2-1 .5-1.6.7-1.6.7l.4.9.3-.9c-3.5-.9-7.1-1.4-10.7-1.5-2.9-.1-5.9.4-8.6 1.5l.4.9-.1-.9c-.7.1-1.4.4-2 .8-1.3 1.1-2 2.7-1.9 4.4.1 2 .5 4 1.3 5.9.2.5.8.7 1.2.5.5-.2.7-.7.5-1.2-.7-1.6-1.1-3.4-1.2-5.2 0-1.8.6-2.5 1.1-2.9.2-.2.5-.3.7-.4l.2-.1-.1-.5v.5l-.1-.5v.5l.3-.1c2.5-1 5.2-1.4 7.9-1.3 2.4 0 4.8.3 7.1.7.9.2 1.7.3 2.2.5.3.1.5.1.6.2l.2.1c.2.1.4 0 .6 0 0 0 36.2-15.8 61.1-30.8 12.3-7.5 27.4-14 39.3-18.7 6-2.3 11.2-4.2 14.9-5.5 1.9-.6 3.3-1.1 4.4-1.5 1-.3 1.6-.5 1.6-.5l-.3-.9.1.9c3.3-.2 6.2-.4 8.8-.4 3.3-.1 6.6.3 9.7 1.4 2.8 1.1 5.4 2.9 7.3 5.2.4.4.9.4 1.3.1.6-.5.6-1.1.3-1.5z"/><path id="Path_137" class="st1" d="M593 587.4c-.1 2.2-.8 4.3-1.9 6.3-1.9 3.5-5.5 7.8-13 11.5-.5.2-.7.8-.5 1.3s.8.7 1.3.5c7.8-3.8 11.8-8.5 13.8-12.3 1.2-2.2 2-4.6 2.1-7.1 0-.5-.5-.9-1-.9-.4-.2-.8.2-.8.7"/><path id="Path_138" class="st1" d="M421.5 542.3s.4.3 1.1.8c2.4 1.8 8.4 6.4 14.3 11.8s11.8 11.7 13.8 16.5c.1.2.3.4.5.5 0 0 .6.2 1.5.7 2.8 1.3 9 4.1 12.3 6.4.4.3 1 .2 1.3-.2.3-.4.2-1-.2-1.3-2.8-1.8-5.8-3.5-8.8-4.9-2.9-1.4-5.3-2.4-5.3-2.4l-.4.9.9-.4c-1.7-3.6-4.1-6.9-6.9-9.8-9.1-10.1-23-20.1-23-20.1-.4-.3-1-.2-1.3.2-.3.4-.2 1 .2 1.3"/><path id="Path_139" class="st1" d="M452.5 556.6c1 3.1 1.6 6.3 1.6 9.5 0 2-.2 4-.8 5.9-.1.5.2 1 .7 1.2s1-.2 1.2-.7c.6-2.1.8-4.2.8-6.4 0-3.4-.6-6.8-1.7-10.1-.2-.5-.7-.8-1.2-.6-.5.2-.8.7-.6 1.2"/><path id="Path_140" class="st1" d="M528.6 610.6c3.1-.2 6.2-.6 9.2-1.1.5-.1.8-.6.7-1.1-.1-.5-.6-.8-1.1-.7-3 .6-6 .9-9 1.1-.5 0-.9.5-.9 1 .1.4.6.8 1.1.8z"/><path id="Path_141" class="st1" d="M451.2 602.7c22.5 4.3 47.1 7.6 70.9 8.1.5 0 1-.4 1-.9s-.4-1-.9-1c-23.6-.5-48.2-3.8-70.6-8.1-.5-.1-1 .3-1.1.8-.1.5.2 1 .7 1.1z"/><path id="Path_142" class="st3" d="M500.3 342.4l-26.4 9.8-23.1 127.4 14.8 53.6H509l7.7-15.3s-.5-97.3.6-101.2c1.1-3.8 17-61.8 17-61.8l-34-12.5z"/><path id="Path_143" class="st32" d="M500.3 342.4l-26.4 9.8-23.1 127.4 14.8 53.6H509l7.7-15.3s-.5-97.3.6-101.2c1.1-3.8 17-61.8 17-61.8l-34-12.5z"/><path id="Path_144" class="st32" d="M487.9 465.5s-.8 12.5-1.2 25.8m8.2-10c.1 1.7-1.2 3.1-2.9 3.1-1.7.1-3.1-1.2-3.1-2.9-.1-1.7 1.2-3.1 2.9-3.1h.1c1.6 0 3 1.3 3 2.9zm4-37.8c.1 1.7-1.2 3.1-2.9 3.1-1.7.1-3.1-1.2-3.1-2.9-.1-1.7 1.2-3.1 2.9-3.1h.1c1.7 0 3 1.3 3 2.9zm2.4-33c.1 1.7-1.2 3.1-2.9 3.1-1.7.1-3.1-1.2-3.1-2.9-.1-1.7 1.2-3.1 2.9-3.1h.1c1.6 0 2.9 1.3 3 2.9zm-7.4-11.2s-4 30.1-5.4 58.9"/><path id="Path_145" class="st33" d="M530.6 345.6s-10 34.4-17.2 60.7c-7.2 26.2-3.8 124.7-3.8 124.7s18.3 1.7 26.4 5.5c8.1 3.8 11.9 13.1 25.5 17.8 8.6 2.8 17.7 4 26.8 3.4 0 0-10.2-50.3-11.1-60.5-.9-10.1 4.7-120.9 1.3-124.7s-47.9-26.9-47.9-26.9"/><path id="Path_146" class="st32" d="M530.6 345.6s-10 34.4-17.2 60.7c-7.2 26.2-3.8 124.7-3.8 124.7s18.3 1.7 26.4 5.5c8.1 3.8 11.9 13.1 25.5 17.8 8.6 2.8 17.7 4 26.8 3.4 0 0-10.2-50.3-11.1-60.5-.9-10.1 4.7-120.9 1.3-124.7s-47.9-26.9-47.9-26.9z"/><path id="Path_147" class="st32" d="M520.6 520.7s2.8-2.9 12.2-2.3m-10 6.3c9.9-2.2 20.1-2 29.9.5m6.8 2.3c2.7 1.1 5.2 2.5 7.6 4.1"/><path id="Path_148" class="st33" d="M481.7 342.2s-56.1 33.3-57.4 35.4c-1.3 2.1-31 96.6-31 96.6l65 2.5s16.3-113.5 23.4-134.5"/><path id="Path_149" class="st32" d="M481.7 342.2s-56.1 33.3-57.4 35.4c-1.3 2.1-31 96.6-31 96.6l65 2.5s16.3-113.5 23.4-134.5z"/></g></g><path id="Path_150" class="st32" d="M435.5 487.7l10-52.4m1.5-7.9l1.2-6.3"/><g transform="translate(12.414 16.031)" id="Group_8187"><defs><path id="SVGID_00000096749261853204821190000016106320113101831073_" d="M0 0h657v651.1H0z"/></defs><clipPath id="SVGID_00000123417508388859748890000010834481211512345230_"><use xlink:href="#SVGID_00000096749261853204821190000016106320113101831073_" overflow="visible"/></clipPath><g id="Group_8186" clip-path="url(#SVGID_00000123417508388859748890000010834481211512345230_)"><path id="Path_151" class="st3" d="M481.1 342.3l-12.3 41.4 24-15.4 28.7 18.7s10.5-35.5 9.6-41.2c-1-5.8-5.7-12-5.7-12l-44.3 8.5z"/><path id="Path_152" class="st32" d="M481.1 342.3l-12.3 41.4 24-15.4 28.7 18.7s10.5-35.5 9.6-41.2c-1-5.8-5.7-12-5.7-12l-44.3 8.5z"/><path id="Path_153" class="st35" d="M481.5 239s-15.9 24-15.9 28.8-2.3 13.3-3.6 15.5-12.3 6.8-11.7 11.3c.7 4.5 4.9 8.7 4.9 8.7s3.2 32.4 8.1 31.7c4.9-.6 15.3.3 15.3.3s14.6 55.4 15.9 53.4c1.3-1.9 31.2-48.6 31.2-48.6s2.6-20.1 3.9-22.3c1.3-2.3 21.1-17.5 24.7-26.6s2.6-33.4-2.9-41.8c-5.5-8.4-31.2-20.4-44.1-19.4-13.1 1.2-23.8 4.1-25.8 9"/><path id="Path_154" class="st32" d="M481.5 239s-15.9 24-15.9 28.8-2.3 13.3-3.6 15.5-12.3 6.8-11.7 11.3c.7 4.5 4.9 8.7 4.9 8.7s3.2 32.4 8.1 31.7c4.9-.6 15.3.3 15.3.3s14.6 55.4 15.9 53.4c1.3-1.9 31.2-48.6 31.2-48.6s2.6-20.1 3.9-22.3c1.3-2.3 21.1-17.5 24.7-26.6s2.6-33.4-2.9-41.8c-5.5-8.4-31.2-20.4-44.1-19.4-13.1 1.2-23.8 4.1-25.8 9z"/><path id="Path_155" class="st33" d="M507 230.2c-13 1-23.8 3.9-25.7 8.8 0 0-2.3 5.2 5.2 5.2s25.7-.7 25.7 7.1-13 11.1-12.7 15 8.5 13.3 8.5 13.3-3.3 9.1.7 10.4c3.9 1.3 4.2-3.9 9.1-2.6 4.9 1.3 9.4 13.3 7.2 17.2s-9.1 9.1-9.1 9.1c4.3 2.1 8.8 3.9 13.3 5.5.1-.3.2-.7.4-1 1.3-2.3 21.2-17.6 24.7-26.7s2.6-33.5-2.9-41.9c-5.6-8.3-31.4-20.3-44.4-19.4"/><path id="Path_156" class="st32" d="M507 230.2c-13 1-23.8 3.9-25.7 8.8 0 0-2.3 5.2 5.2 5.2s25.7-.7 25.7 7.1-13 11.1-12.7 15 8.5 13.3 8.5 13.3-3.3 9.1.7 10.4c3.9 1.3 4.2-3.9 9.1-2.6 4.9 1.3 9.4 13.3 7.2 17.2s-9.1 9.1-9.1 9.1c4.3 2.1 8.8 3.9 13.3 5.5.1-.3.2-.7.4-1 1.3-2.3 21.2-17.6 24.7-26.7s2.6-33.5-2.9-41.9c-5.6-8.3-31.4-20.3-44.4-19.4z"/><path id="Path_157" class="st1" d="M463.3 303.4c4.8.6 9.6-.9 13.3-4 0 0 4.4 8.9-2.8 11.7s-10.5-7.7-10.5-7.7"/><path id="Path_158" class="st1" d="M473.9 280.7c-.8 2.6-2.3 4.4-3.4 4-1.1-.3-1.4-2.7-.6-5.2.8-2.6 2.3-4.4 3.4-4 1 .3 1.3 2.6.6 5.2"/><path id="Path_159" d="M471.1 267.1s5.8-6.5 9.9 2.8" fill="none" stroke="#263338" stroke-width="2" stroke-linecap="round" stroke-linejoin="round"/><path id="Path_160" class="st32" d="M479 279.4l34 8.7m-46.5-9.7l-4.5-2.3m16 6c-1.8 5.9-5.9 9.8-9.1 8.8-3.2-1-4.3-6.6-2.5-12.5 1.8-5.9 5.9-9.8 9.1-8.8 3.2 1 4.4 6.6 2.5 12.5z"/><path id="Path_161" class="st1" d="M463.3 335.1s14.5-3.5 15.8-3.5 22-8.7 22-8.7L481.3 343l-2.6-7.5-15.4-.4z"/><path id="Path_162" class="st32" d="M463.3 335.1s14.5-3.5 15.8-3.5 22-8.7 22-8.7L481.3 343l-2.6-7.5-15.4-.4z"/><path id="Path_163" class="st33" d="M577.9 372.4s7.3 0 12.4 14.4 32.1 105.5 29.5 111c-2.6 5.5-32.1 6.4-36.4.4s-8.6-17.8-8.6-17.8l-5.1-58.5"/><path id="Path_164" class="st32" d="M577.9 372.4s7.3 0 12.4 14.4 32.1 105.5 29.5 111c-2.6 5.5-32.1 6.4-36.4.4s-8.6-17.8-8.6-17.8l-5.1-58.5"/><path id="Path_165" class="st35" d="M566.8 450.8l-7.7-7.2s-.4-27.3-1.7-29-18-8.5-19.3-8.5c-1.3 0-9 7.7-9 7.7s-2.1 9.8-2.6 12.4 0 13.6 0 13.6.4 6.4 3 6.8c1.8.3 3.7.4 5.6.4 0 0 3 6 6 8.1 2.1 1.4 4.4 2.6 6.9 3.4l12 10.7 6.8-18.4z"/><path id="Path_166" class="st32" d="M566.8 450.8l-7.7-7.2s-.4-27.3-1.7-29-18-8.5-19.3-8.5c-1.3 0-9 7.7-9 7.7s-2.1 9.8-2.6 12.4 0 13.6 0 13.6.4 6.4 3 6.8c1.8.3 3.7.4 5.6.4 0 0 3 6 6 8.1 2.1 1.4 4.4 2.6 6.9 3.4l12 10.7 6.8-18.4z"/></g></g><path id="Path_167" class="st32" d="M547.5 463.3l1.3-3.7-4.1-1.3m-5.9-8.9l17.1 4.2m-16-14.4l18.4 6.1m-16.9-15.6l21.1 5.7"/><g transform="translate(12.414 16.031)" id="Group_8189"><defs><path id="SVGID_00000139274555045290723600000009159935338827287939_" d="M0 0h657v651.1H0z"/></defs><clipPath id="SVGID_00000121963104860736847870000013196473479023136137_"><use xlink:href="#SVGID_00000139274555045290723600000009159935338827287939_" overflow="visible"/></clipPath><g id="Group_8188" clip-path="url(#SVGID_00000121963104860736847870000013196473479023136137_)"><path id="Path_168" class="st33" d="M616.8 479.5l-50.6-29.2-18.3 28.7s37.4 36.4 42.1 40.2c4.7 3.8 14.9 5.1 19.6 3.8 4.7-1.3 13.2-12.7 13.2-23.3s-6-20.2-6-20.2"/><path id="Path_169" class="st32" d="M616.8 479.5l-50.6-29.2-18.3 28.7s37.4 36.4 42.1 40.2c4.7 3.8 14.9 5.1 19.6 3.8 4.7-1.3 13.2-12.7 13.2-23.3s-6-20.2-6-20.2z"/></g></g><path id="Path_170" d="M508.9 565.1l38.2-19.8-51-2.6 12.8 22.4z" fill="#ededed"/><path id="Path_171" class="st32" d="M508.9 565.1l38.2-19.8-51-2.6 12.8 22.4z"/><path id="Path_172" d="M377.7 478l21.2 80.1 110.6 7.1-22.7-85.2-109.1-2z" fill="#cccccb"/><path id="Path_173" class="st32" d="M377.7 478l21.2 80.1 110.6 7.1-22.7-85.2-109.1-2z"/><g transform="translate(12.414 16.031)" id="Group_8191"><defs><path id="SVGID_00000054953225496118346100000005935932171167132334_" d="M0 0h657v651.1H0z"/></defs><clipPath id="SVGID_00000140735528999904056180000014090617789067997075_"><use xlink:href="#SVGID_00000054953225496118346100000005935932171167132334_" overflow="visible"/></clipPath><g id="Group_8190" clip-path="url(#SVGID_00000140735528999904056180000014090617789067997075_)"><path id="Path_174" class="st3" d="M436.3 503.8c0 4.5-4.4 8.1-9.9 8.1s-9.9-3.6-9.9-8.1 4.4-8.1 9.9-8.1 9.9 3.6 9.9 8.1"/><path id="Path_175" class="st32" d="M436.3 503.8c0 4.5-4.4 8.1-9.9 8.1s-9.9-3.6-9.9-8.1 4.4-8.1 9.9-8.1 9.9 3.6 9.9 8.1z"/><path id="Path_176" class="st35" d="M365.6 483.4s-.3 5.8 1.6 7.1c2 1.4 14.2 4.1 15.2 1s.3-5.8-2.3-6.5-10.9-3.6-14.5-1.6"/><path id="Path_177" class="st32" d="M365.6 483.4s-.3 5.8 1.6 7.1c2 1.4 14.2 4.1 15.2 1s.3-5.8-2.3-6.5-10.9-3.6-14.5-1.6z"/><path id="Path_178" class="st35" d="M367.2 490s-.3 7.2 1.7 8.5 9.9 1.7 11.6-.3 2-7.2 2-7.2-11.7 1.4-15.3-1"/><path id="Path_179" class="st32" d="M367.2 490s-.3 7.2 1.7 8.5 9.9 1.7 11.6-.3 2-7.2 2-7.2-11.7 1.4-15.3-1z"/><path id="Path_180" class="st35" d="M368.7 497.9s1.7 5.3 3 6.3 9 1.1 10-1.1-1.3-5.6-1.3-5.6-8.6 1.1-11.7.4"/><path id="Path_181" class="st32" d="M368.7 497.9s1.7 5.3 3 6.3 9 1.1 10-1.1-1.3-5.6-1.3-5.6-8.6 1.1-11.7.4z"/><path id="Path_182" class="st35" d="M371.6 503.7c.1 2 1.4 3.7 3.4 4.3 3.4 1.1 8.1 1.4 8.4-.7s-1.7-4.7-1.7-4.7-6.4 1.8-10.1 1.1"/><path id="Path_183" class="st32" d="M371.6 503.7c.1 2 1.4 3.7 3.4 4.3 3.4 1.1 8.1 1.4 8.4-.7s-1.7-4.7-1.7-4.7-6.4 1.8-10.1 1.1z"/></g></g></g></svg>